{"glyphs":{"0":{"ha":911,"x_min":49,"x_max":868,"o":"m 457 -14 q 254 53 349 -14 q 104 235 160 121 q 49 479 49 349 q 100 733 49 622 q 244 904 151 843 q 457 965 336 965 q 660 899 565 965 q 812 719 756 832 q 868 479 868 607 q 816 223 868 335 q 671 49 764 111 q 457 -14 578 -14 m 471 125 q 588 170 535 125 q 671 294 640 215 q 701 468 701 372 q 666 640 701 557 q 574 774 631 722 q 457 826 517 826 q 333 780 388 826 q 247 652 278 733 q 215 468 215 571 q 251 299 215 378 q 345 172 286 219 q 471 125 404 125 z "},"1":{"ha":404,"x_min":49,"x_max":361,"o":"m 222 840 l 49 840 l 49 965 l 361 965 l 361 0 l 222 0 l 222 840 z "},"2":{"ha":636,"x_min":49,"x_max":593,"o":"m 317 526 q 383 646 360 592 q 406 738 406 700 q 376 811 406 782 q 300 840 346 840 q 228 821 267 840 q 136 760 189 801 l 50 868 q 165 940 103 915 q 292 965 228 965 q 419 935 361 965 q 511 853 478 906 q 544 739 544 801 q 521 616 544 686 q 460 490 497 546 l 215 122 l 593 122 l 593 -3 l 49 -3 l 49 122 l 317 526 z "},"3":{"ha":543,"x_min":49,"x_max":500,"o":"m 49 138 q 201 163 133 138 q 308 233 269 189 q 347 332 347 278 q 300 432 347 393 q 179 471 253 471 l 138 522 l 283 826 l 54 826 l 54 951 l 447 951 l 447 828 l 333 594 q 465 472 429 526 q 500 342 500 418 q 446 159 500 236 q 290 41 392 82 q 49 0 188 0 l 49 138 z "},"4":{"ha":607,"x_min":49,"x_max":564,"o":"m 86 167 q 59 176 69 167 q 49 201 49 185 l 49 476 q 53 522 49 503 q 72 563 58 542 l 306 907 q 341 941 321 931 q 390 951 361 951 l 564 951 l 564 0 l 425 0 l 425 167 l 86 167 m 390 292 q 425 326 425 292 l 425 722 q 413 747 425 738 q 382 757 400 757 q 340 735 354 757 l 200 528 q 188 485 188 510 l 188 326 q 222 292 188 292 l 390 292 z "},"5":{"ha":636,"x_min":49,"x_max":593,"o":"m 49 139 q 339 206 238 139 q 440 396 440 272 q 393 537 440 483 q 268 590 346 590 l 90 590 l 90 951 l 593 951 l 593 826 l 229 826 l 229 729 q 500 648 407 729 q 593 411 593 567 q 451 107 593 214 q 49 0 310 0 l 49 139 z "},"6":{"ha":642,"x_min":49,"x_max":599,"o":"m 333 0 q 119 86 189 0 q 49 353 49 172 q 122 663 49 522 q 321 884 194 803 q 599 965 447 965 l 599 856 q 448 817 529 856 q 311 723 367 779 q 256 619 256 667 q 349 631 311 631 q 533 545 468 631 q 599 300 599 460 q 533 74 599 147 q 333 0 468 0 m 324 126 q 426 172 393 126 q 460 311 460 218 q 318 506 460 506 q 219 461 250 506 q 188 321 188 417 q 221 174 188 221 q 324 126 254 126 z "},"7":{"ha":756,"x_min":49,"x_max":713,"o":"m 114 0 q 190 421 114 219 q 433 813 265 622 l 49 813 l 49 951 l 713 951 q 449 588 540 747 q 324 293 357 428 q 292 0 292 158 l 114 0 z "},"8":{"ha":689,"x_min":49,"x_max":646,"o":"m 344 -17 q 194 22 261 -17 q 88 128 126 61 q 49 278 49 196 q 76 408 49 349 q 154 508 104 468 q 78 699 78 588 q 113 835 78 775 q 207 931 147 896 q 340 965 267 965 q 480 930 417 965 q 580 833 543 894 q 617 697 617 771 q 595 592 617 642 q 535 507 574 543 q 617 406 588 465 q 646 276 646 346 q 606 128 646 196 q 496 22 565 61 q 344 -17 426 -17 m 346 558 q 444 599 404 558 q 485 697 485 640 q 444 797 485 756 q 343 839 403 839 q 248 799 286 839 q 210 699 210 758 q 249 599 210 640 q 346 558 288 558 m 346 122 q 455 168 410 122 q 500 276 500 214 q 455 388 500 342 q 343 433 410 433 q 238 388 281 433 q 194 278 194 343 q 238 167 194 213 q 346 122 282 122 z "},"9":{"ha":642,"x_min":49,"x_max":599,"o":"m 49 110 q 199 148 118 110 q 336 242 281 186 q 392 346 392 299 q 299 335 336 335 q 114 420 179 335 q 49 665 49 506 q 114 892 49 818 q 314 965 179 965 q 528 879 458 965 q 599 613 599 793 q 526 303 599 443 q 326 81 453 163 q 49 0 200 0 l 49 110 m 329 460 q 428 504 397 460 q 460 644 460 549 q 426 792 460 744 q 324 839 393 839 q 221 793 254 839 q 188 654 188 747 q 329 460 188 460 z "}," ":{"ha":326,"x_min":0,"x_max":0,"o":""},"A":{"ha":965,"x_min":63,"x_max":903,"o":"m 63 -1 q 214 538 133 303 q 394 965 294 774 l 561 965 q 733 583 660 792 q 903 0 807 375 l 724 0 q 681 188 703 113 l 265 188 l 219 -1 l 63 -1 m 633 340 q 556 582 594 486 q 474 749 518 678 q 396 588 447 715 q 308 340 344 461 l 633 340 z "},"Á":{"ha":965,"x_min":63,"x_max":903,"o":"m 575 1308 l 714 1308 l 503 1061 l 419 1061 l 575 1308 m 63 -1 q 214 538 133 303 q 394 965 294 774 l 561 965 q 733 583 660 792 q 903 0 807 375 l 724 0 q 681 188 703 113 l 265 188 l 219 -1 l 63 -1 m 633 340 q 556 582 594 486 q 474 749 518 678 q 396 588 447 715 q 308 340 344 461 l 633 340 z "},"Ă":{"ha":965,"x_min":63,"x_max":903,"o":"m 63 -1 q 214 538 133 303 q 394 965 294 774 l 561 965 q 733 583 660 792 q 903 0 807 375 l 724 0 q 681 188 703 113 l 265 188 l 219 -1 l 63 -1 m 633 340 q 556 582 594 486 q 474 749 518 678 q 396 588 447 715 q 308 340 344 461 l 633 340 m 483 1049 q 399 1072 439 1049 q 334 1137 358 1096 q 310 1228 310 1178 q 389 1170 343 1194 q 478 1146 435 1146 q 572 1172 517 1146 q 657 1228 626 1197 q 633 1137 657 1178 q 568 1072 608 1096 q 483 1049 528 1049 z "},"Â":{"ha":965,"x_min":63,"x_max":903,"o":"m 63 -1 q 214 538 133 303 q 394 965 294 774 l 561 965 q 733 583 660 792 q 903 0 807 375 l 724 0 q 681 188 703 113 l 265 188 l 219 -1 l 63 -1 m 633 340 q 556 582 594 486 q 474 749 518 678 q 396 588 447 715 q 308 340 344 461 l 633 340 m 278 1107 q 483 1354 393 1201 q 689 1107 564 1194 l 626 1035 l 483 1208 l 340 1035 l 278 1107 z "},"Ä":{"ha":965,"x_min":63,"x_max":903,"o":"m 63 -1 q 214 538 133 303 q 394 965 294 774 l 561 965 q 733 583 660 792 q 903 0 807 375 l 724 0 q 681 188 703 113 l 265 188 l 219 -1 l 63 -1 m 633 340 q 556 582 594 486 q 474 749 518 678 q 396 588 447 715 q 308 340 344 461 l 633 340 m 310 1160 l 449 1160 l 449 1035 l 310 1035 l 310 1160 m 518 1160 l 657 1160 l 657 1035 l 518 1035 l 518 1160 z "},"À":{"ha":965,"x_min":63,"x_max":903,"o":"m 63 -1 q 214 538 133 303 q 394 965 294 774 l 561 965 q 733 583 660 792 q 903 0 807 375 l 724 0 q 681 188 703 113 l 265 188 l 219 -1 l 63 -1 m 633 340 q 556 582 594 486 q 474 749 518 678 q 396 588 447 715 q 308 340 344 461 l 633 340 m 239 1296 l 378 1296 l 533 1049 l 450 1049 l 239 1296 z "},"Ā":{"ha":965,"x_min":63,"x_max":903,"o":"m 63 -1 q 214 538 133 303 q 394 965 294 774 l 561 965 q 733 583 660 792 q 903 0 807 375 l 724 0 q 681 188 703 113 l 265 188 l 219 -1 l 63 -1 m 633 340 q 556 582 594 486 q 474 749 518 678 q 396 588 447 715 q 308 340 344 461 l 633 340 m 310 1132 l 657 1132 l 657 1049 l 310 1049 l 310 1132 z "},"Ą":{"ha":965,"x_min":63,"x_max":939,"o":"m 939 -169 q 867 -204 908 -192 q 786 -217 826 -217 q 739 -194 758 -217 q 719 -139 719 -171 q 741 -60 719 -99 q 803 0 763 -21 l 724 0 q 681 188 703 113 l 265 188 l 219 -1 l 63 -1 q 214 538 133 303 q 394 965 294 774 l 561 965 q 733 583 660 792 q 903 0 807 375 l 876 0 q 841 -51 851 -21 q 831 -107 831 -81 q 848 -150 831 -136 q 904 -164 865 -164 q 931 -158 922 -164 l 939 -169 m 633 340 q 556 582 594 486 q 474 749 518 678 q 396 588 447 715 q 308 340 344 461 l 633 340 z "},"Å":{"ha":965,"x_min":63,"x_max":903,"o":"m 63 -1 q 214 538 133 303 q 394 965 294 774 l 561 965 q 733 583 660 792 q 903 0 807 375 l 724 0 q 681 188 703 113 l 265 188 l 219 -1 l 63 -1 m 633 340 q 556 582 594 486 q 474 749 518 678 q 396 588 447 715 q 308 340 344 461 l 633 340 m 483 1035 q 395 1069 432 1035 q 358 1153 358 1104 q 395 1236 358 1201 q 483 1271 432 1271 q 572 1236 535 1271 q 608 1153 608 1201 q 572 1069 608 1104 q 483 1035 535 1035 m 483 1097 q 528 1113 511 1097 q 546 1150 546 1128 q 527 1191 546 1174 q 483 1208 508 1208 q 440 1191 458 1208 q 421 1150 421 1174 q 438 1113 421 1128 q 483 1097 456 1097 z "},"Ã":{"ha":965,"x_min":63,"x_max":903,"o":"m 63 -1 q 214 538 133 303 q 394 965 294 774 l 561 965 q 733 583 660 792 q 903 0 807 375 l 724 0 q 681 188 703 113 l 265 188 l 219 -1 l 63 -1 m 633 340 q 556 582 594 486 q 474 749 518 678 q 396 588 447 715 q 308 340 344 461 l 633 340 m 229 1047 q 280 1170 229 1121 q 406 1219 331 1219 q 454 1211 431 1219 q 514 1182 478 1203 q 563 1157 543 1164 q 601 1150 582 1150 q 679 1174 644 1150 q 714 1229 714 1199 l 738 1229 q 683 1090 738 1144 q 546 1035 629 1035 q 485 1047 511 1035 q 429 1088 458 1058 q 397 1114 410 1107 q 365 1121 383 1121 q 288 1094 322 1121 q 253 1035 253 1067 l 229 1035 l 229 1047 z "},"Æ":{"ha":1483,"x_min":63,"x_max":1421,"o":"m 63 -1 q 355 535 213 300 q 649 965 497 771 l 1393 965 l 1393 813 l 900 813 l 900 618 l 1421 618 l 1421 479 l 900 479 l 900 399 q 904 139 904 282 l 1393 139 l 1393 0 l 726 0 q 732 188 733 126 l 315 188 l 219 -1 l 63 -1 m 724 340 q 710 585 722 489 q 671 749 697 681 q 551 588 636 715 q 399 340 465 460 l 724 340 z "},"B":{"ha":868,"x_min":63,"x_max":806,"o":"m 513 951 q 637 923 581 951 q 725 846 693 894 q 757 738 757 797 q 716 610 757 669 q 610 522 675 550 q 754 433 703 497 q 806 279 806 369 q 769 139 806 203 q 671 38 733 75 q 533 0 608 0 l 63 0 l 63 951 l 513 951 m 440 597 q 549 626 508 597 q 590 704 590 656 q 553 782 590 751 q 461 813 517 813 l 229 813 l 229 597 l 440 597 m 469 139 q 590 187 540 139 q 639 303 639 235 q 579 424 639 376 q 428 472 519 472 l 229 472 l 229 139 l 469 139 z "},"C":{"ha":1038,"x_min":63,"x_max":975,"o":"m 560 -14 q 302 58 415 -14 q 126 243 189 129 q 63 479 63 357 q 131 724 63 613 q 315 901 199 836 q 569 965 431 965 q 778 913 668 965 q 943 786 888 860 l 832 703 q 710 794 783 761 q 554 826 636 826 q 383 782 456 826 q 269 656 310 738 q 229 461 229 574 q 271 291 229 368 q 389 169 313 214 q 563 125 465 125 q 743 172 656 125 q 889 299 831 218 l 975 193 q 792 42 904 99 q 560 -14 679 -14 z "},"Ć":{"ha":1038,"x_min":63,"x_max":975,"o":"m 560 -14 q 302 58 415 -14 q 126 243 189 129 q 63 479 63 357 q 131 724 63 613 q 315 901 199 836 q 569 965 431 965 q 778 913 668 965 q 943 786 888 860 l 832 703 q 710 794 783 761 q 554 826 636 826 q 383 782 456 826 q 269 656 310 738 q 229 461 229 574 q 271 291 229 368 q 389 169 313 214 q 563 125 465 125 q 743 172 656 125 q 889 299 831 218 l 975 193 q 792 42 904 99 q 560 -14 679 -14 m 556 1296 l 694 1296 l 483 1049 l 400 1049 l 556 1296 z "},"Č":{"ha":1038,"x_min":63,"x_max":975,"o":"m 560 -14 q 302 58 415 -14 q 126 243 189 129 q 63 479 63 357 q 131 724 63 613 q 315 901 199 836 q 569 965 431 965 q 778 913 668 965 q 943 786 888 860 l 832 703 q 710 794 783 761 q 554 826 636 826 q 383 782 456 826 q 269 656 310 738 q 229 461 229 574 q 271 291 229 368 q 389 169 313 214 q 563 125 465 125 q 743 172 656 125 q 889 299 831 218 l 975 193 q 792 42 904 99 q 560 -14 679 -14 m 519 1035 q 314 1282 429 1188 l 376 1354 l 519 1181 l 663 1354 l 725 1282 q 519 1035 600 1194 z "},"Ç":{"ha":1038,"x_min":63,"x_max":975,"o":"m 975 193 q 794 44 906 100 q 565 -14 683 -12 l 538 -62 l 556 -62 q 637 -81 608 -62 q 665 -135 665 -100 q 634 -216 665 -186 q 556 -246 603 -246 q 457 -176 457 -246 l 507 -176 q 556 -199 532 -199 q 569 -187 564 -199 q 575 -162 575 -176 q 569 -128 575 -146 q 556 -110 564 -110 q 526 -115 544 -110 q 489 -135 507 -119 l 457 -119 l 513 -11 q 278 73 381 0 q 119 255 175 146 q 63 479 63 364 q 131 724 63 613 q 315 901 199 836 q 569 965 431 965 q 778 913 668 965 q 943 786 888 860 l 832 703 q 710 794 783 761 q 554 826 636 826 q 383 782 456 826 q 269 656 310 738 q 229 461 229 574 q 271 291 229 368 q 389 169 313 214 q 563 125 465 125 q 743 172 656 125 q 889 299 831 218 l 975 193 z "},"Ċ":{"ha":1038,"x_min":63,"x_max":975,"o":"m 560 -14 q 302 58 415 -14 q 126 243 189 129 q 63 479 63 357 q 131 724 63 613 q 315 901 199 836 q 569 965 431 965 q 778 913 668 965 q 943 786 888 860 l 832 703 q 710 794 783 761 q 554 826 636 826 q 383 782 456 826 q 269 656 310 738 q 229 461 229 574 q 271 291 229 368 q 389 169 313 214 q 563 125 465 125 q 743 172 656 125 q 889 299 831 218 l 975 193 q 792 42 904 99 q 560 -14 679 -14 m 450 1160 l 589 1160 l 589 1035 l 450 1035 l 450 1160 z "},"D":{"ha":994,"x_min":63,"x_max":932,"o":"m 229 951 q 658 909 508 951 q 869 766 807 867 q 932 476 932 665 q 869 186 932 288 q 658 42 807 85 q 229 0 508 0 l 63 0 l 63 951 l 229 951 m 229 139 q 556 169 442 139 q 717 272 669 200 q 765 478 765 343 q 718 682 765 611 q 556 783 671 753 q 229 813 442 813 l 229 139 z "},"Ð":{"ha":1089,"x_min":63,"x_max":1026,"o":"m 324 951 q 752 909 603 951 q 964 766 901 867 q 1026 476 1026 665 q 964 186 1026 288 q 752 42 901 85 q 324 0 603 0 l 157 0 l 157 590 l 63 590 l 63 729 l 157 729 l 157 951 l 324 951 m 324 139 q 650 169 536 139 q 812 272 764 200 q 860 478 860 343 q 813 682 860 611 q 651 783 765 753 q 324 813 536 813 l 324 729 l 410 729 l 410 590 l 324 590 l 324 139 z "},"Ď":{"ha":994,"x_min":63,"x_max":932,"o":"m 229 951 q 658 909 508 951 q 869 766 807 867 q 932 476 932 665 q 869 186 932 288 q 658 42 807 85 q 229 0 508 0 l 63 0 l 63 951 l 229 951 m 229 139 q 556 169 442 139 q 717 272 669 200 q 765 478 765 343 q 718 682 765 611 q 556 783 671 753 q 229 813 442 813 l 229 139 m 442 1035 q 236 1282 351 1188 l 299 1354 l 442 1181 l 585 1354 l 647 1282 q 442 1035 522 1194 z "},"Đ":{"ha":1089,"x_min":63,"x_max":1026,"o":"m 324 951 q 752 909 603 951 q 964 766 901 867 q 1026 476 1026 665 q 964 186 1026 288 q 752 42 901 85 q 324 0 603 0 l 157 0 l 157 590 l 63 590 l 63 729 l 157 729 l 157 951 l 324 951 m 324 139 q 650 169 536 139 q 812 272 764 200 q 860 478 860 343 q 813 682 860 611 q 651 783 765 753 q 324 813 536 813 l 324 729 l 410 729 l 410 590 l 324 590 l 324 139 z "},"E":{"ha":813,"x_min":63,"x_max":750,"o":"m 63 951 l 722 951 l 722 813 l 229 813 l 229 618 l 750 618 l 750 479 l 229 479 l 229 139 l 722 139 l 722 0 l 63 0 l 63 951 z "},"É":{"ha":813,"x_min":63,"x_max":750,"o":"m 63 951 l 722 951 l 722 813 l 229 813 l 229 618 l 750 618 l 750 479 l 229 479 l 229 139 l 722 139 l 722 0 l 63 0 l 63 951 m 415 1296 l 554 1296 l 343 1049 l 260 1049 l 415 1296 z "},"Ě":{"ha":813,"x_min":63,"x_max":750,"o":"m 63 951 l 722 951 l 722 813 l 229 813 l 229 618 l 750 618 l 750 479 l 229 479 l 229 139 l 722 139 l 722 0 l 63 0 l 63 951 m 407 1035 q 201 1282 317 1188 l 264 1354 l 407 1181 l 550 1354 l 613 1282 q 407 1035 488 1194 z "},"Ê":{"ha":813,"x_min":63,"x_max":750,"o":"m 63 951 l 722 951 l 722 813 l 229 813 l 229 618 l 750 618 l 750 479 l 229 479 l 229 139 l 722 139 l 722 0 l 63 0 l 63 951 m 201 1107 q 407 1354 317 1201 q 613 1107 488 1194 l 550 1035 l 407 1208 l 264 1035 l 201 1107 z "},"Ë":{"ha":813,"x_min":63,"x_max":750,"o":"m 63 951 l 722 951 l 722 813 l 229 813 l 229 618 l 750 618 l 750 479 l 229 479 l 229 139 l 722 139 l 722 0 l 63 0 l 63 951 m 233 1160 l 372 1160 l 372 1035 l 233 1035 l 233 1160 m 442 1160 l 581 1160 l 581 1035 l 442 1035 l 442 1160 z "},"Ė":{"ha":813,"x_min":63,"x_max":750,"o":"m 63 951 l 722 951 l 722 813 l 229 813 l 229 618 l 750 618 l 750 479 l 229 479 l 229 139 l 722 139 l 722 0 l 63 0 l 63 951 m 338 1160 l 476 1160 l 476 1035 l 338 1035 l 338 1160 z "},"È":{"ha":813,"x_min":63,"x_max":750,"o":"m 63 951 l 722 951 l 722 813 l 229 813 l 229 618 l 750 618 l 750 479 l 229 479 l 229 139 l 722 139 l 722 0 l 63 0 l 63 951 m 218 1296 l 357 1296 l 513 1049 l 429 1049 l 218 1296 z "},"Ē":{"ha":813,"x_min":63,"x_max":750,"o":"m 63 951 l 722 951 l 722 813 l 229 813 l 229 618 l 750 618 l 750 479 l 229 479 l 229 139 l 722 139 l 722 0 l 63 0 l 63 951 m 233 1132 l 581 1132 l 581 1049 l 233 1049 l 233 1132 z "},"Ę":{"ha":813,"x_min":63,"x_max":750,"o":"m 229 479 l 229 139 l 722 139 l 722 0 l 669 0 q 634 -51 644 -21 q 624 -107 624 -81 q 641 -150 624 -136 q 697 -164 658 -164 q 724 -158 715 -164 l 732 -169 q 660 -204 701 -192 q 579 -217 619 -217 q 532 -194 551 -217 q 513 -139 513 -171 q 534 -60 513 -99 q 596 0 556 -21 l 63 0 l 63 951 l 722 951 l 722 813 l 229 813 l 229 618 l 750 618 l 750 479 l 229 479 z "},"F":{"ha":813,"x_min":63,"x_max":750,"o":"m 63 951 l 722 951 l 722 813 l 229 813 l 229 618 l 750 618 l 750 479 l 229 479 l 229 0 l 63 0 l 63 951 z "},"G":{"ha":1040,"x_min":63,"x_max":978,"o":"m 563 -14 q 313 53 428 -14 q 130 235 197 121 q 63 481 63 349 q 130 724 63 613 q 313 900 197 835 q 563 965 428 965 q 776 909 665 965 q 942 772 886 853 l 829 690 q 713 786 792 746 q 563 826 633 826 q 385 783 461 826 q 269 663 310 740 q 229 481 229 585 q 272 294 229 375 q 390 169 314 214 q 563 125 465 125 l 811 125 l 811 306 l 644 306 l 644 458 l 978 458 l 978 -14 l 563 -14 z "},"Ğ":{"ha":1040,"x_min":63,"x_max":978,"o":"m 563 -14 q 313 53 428 -14 q 130 235 197 121 q 63 481 63 349 q 130 724 63 613 q 313 900 197 835 q 563 965 428 965 q 776 909 665 965 q 942 772 886 853 l 829 690 q 713 786 792 746 q 563 826 633 826 q 385 783 461 826 q 269 663 310 740 q 229 481 229 585 q 272 294 229 375 q 390 169 314 214 q 563 125 465 125 l 811 125 l 811 306 l 644 306 l 644 458 l 978 458 l 978 -14 l 563 -14 m 521 1049 q 436 1072 476 1049 q 372 1137 396 1096 q 347 1228 347 1178 q 426 1170 381 1194 q 515 1146 472 1146 q 609 1172 554 1146 q 694 1228 664 1197 q 670 1137 694 1178 q 606 1072 646 1096 q 521 1049 565 1049 z "},"Ģ":{"ha":1040,"x_min":63,"x_max":978,"o":"m 563 -14 q 313 53 428 -14 q 130 235 197 121 q 63 481 63 349 q 130 724 63 613 q 313 900 197 835 q 563 965 428 965 q 776 909 665 965 q 942 772 886 853 l 829 690 q 713 786 792 746 q 563 826 633 826 q 385 783 461 826 q 269 663 310 740 q 229 481 229 585 q 272 294 229 375 q 390 169 314 214 q 563 125 465 125 l 811 125 l 811 306 l 644 306 l 644 458 l 978 458 l 978 -14 l 563 -14 m 561 -389 q 597 -268 597 -319 q 589 -222 597 -243 l 521 -222 l 521 -97 l 660 -97 l 660 -222 l 658 -222 q 643 -298 658 -258 q 606 -363 628 -337 q 561 -389 583 -389 z "},"Ġ":{"ha":1040,"x_min":63,"x_max":978,"o":"m 563 -14 q 313 53 428 -14 q 130 235 197 121 q 63 481 63 349 q 130 724 63 613 q 313 900 197 835 q 563 965 428 965 q 776 909 665 965 q 942 772 886 853 l 829 690 q 713 786 792 746 q 563 826 633 826 q 385 783 461 826 q 269 663 310 740 q 229 481 229 585 q 272 294 229 375 q 390 169 314 214 q 563 125 465 125 l 811 125 l 811 306 l 644 306 l 644 458 l 978 458 l 978 -14 l 563 -14 m 451 1160 l 590 1160 l 590 1035 l 451 1035 l 451 1160 z "},"H":{"ha":993,"x_min":63,"x_max":931,"o":"m 63 951 l 229 951 l 229 590 l 764 590 l 764 951 l 931 951 l 931 0 l 764 0 l 764 451 l 229 451 l 229 0 l 63 0 l 63 951 z "},"Ħ":{"ha":1160,"x_min":63,"x_max":1097,"o":"m 1097 840 l 1097 729 l 1014 729 l 1014 0 l 847 0 l 847 451 l 313 451 l 313 0 l 146 0 l 146 729 l 63 729 l 63 840 l 146 840 l 146 951 l 313 951 l 313 840 l 847 840 l 847 951 l 1014 951 l 1014 840 l 1097 840 m 847 590 l 847 729 l 313 729 l 313 590 l 847 590 z "},"I":{"ha":292,"x_min":63,"x_max":229,"o":"m 63 951 l 229 951 l 229 0 l 63 0 l 63 951 z "},"Í":{"ha":383,"x_min":21,"x_max":321,"o":"m 182 1296 l 321 1296 l 110 1049 l 26 1049 l 182 1296 m 21 951 l 188 951 l 188 0 l 21 0 l 21 951 z "},"Î":{"ha":476,"x_min":21,"x_max":432,"o":"m 21 1107 q 226 1354 136 1201 q 432 1107 307 1194 l 369 1035 l 226 1208 l 83 1035 l 21 1107 m 143 951 l 310 951 l 310 0 l 143 0 l 143 951 z "},"Ï":{"ha":472,"x_min":63,"x_max":410,"o":"m 63 1160 l 201 1160 l 201 1035 l 63 1035 l 63 1160 m 271 1160 l 410 1160 l 410 1035 l 271 1035 l 271 1160 m 153 951 l 319 951 l 319 0 l 153 0 l 153 951 z "},"İ":{"ha":292,"x_min":63,"x_max":229,"o":"m 63 951 l 229 951 l 229 0 l 63 0 l 63 951 m 76 1160 l 215 1160 l 215 1035 l 76 1035 l 76 1160 z "},"Ì":{"ha":406,"x_min":21,"x_max":343,"o":"m 21 1296 l 160 1296 l 315 1049 l 232 1049 l 21 1296 m 176 951 l 343 951 l 343 0 l 176 0 l 176 951 z "},"Ī":{"ha":292,"x_min":-28,"x_max":319,"o":"m 63 951 l 229 951 l 229 0 l 63 0 l 63 951 m -28 1132 l 319 1132 l 319 1049 l -28 1049 l -28 1132 z "},"Į":{"ha":292,"x_min":43,"x_max":263,"o":"m 263 -169 q 191 -204 232 -192 q 110 -217 150 -217 q 63 -194 82 -217 q 43 -139 43 -171 q 65 -60 43 -99 q 126 0 86 -21 l 63 0 l 63 951 l 229 951 l 229 0 l 200 0 q 165 -51 175 -21 q 154 -107 154 -81 q 172 -150 154 -136 q 228 -164 189 -164 q 254 -158 246 -164 l 263 -169 z "},"J":{"ha":458,"x_min":63,"x_max":396,"o":"m 63 111 q 169 119 135 111 q 217 148 204 126 q 229 215 229 169 l 229 951 l 396 951 l 396 125 q 379 17 396 47 q 319 -14 363 -14 l 63 -14 l 63 111 z "},"K":{"ha":811,"x_min":63,"x_max":749,"o":"m 229 951 l 229 613 q 436 813 363 736 q 560 951 510 889 l 739 951 q 510 689 632 811 q 749 0 647 435 l 582 0 q 547 173 578 61 q 474 397 517 285 q 392 572 431 508 q 229 426 294 488 l 229 0 l 63 0 l 63 951 l 229 951 z "},"Ķ":{"ha":811,"x_min":63,"x_max":749,"o":"m 229 951 l 229 613 q 436 813 363 736 q 560 951 510 889 l 739 951 q 510 689 632 811 q 749 0 647 435 l 582 0 q 547 173 578 61 q 474 397 517 285 q 392 572 431 508 q 229 426 294 488 l 229 0 l 63 0 l 63 951 l 229 951 m 376 -389 q 413 -268 413 -319 q 404 -222 413 -243 l 336 -222 l 336 -97 l 475 -97 l 475 -222 l 474 -222 q 458 -298 474 -258 q 421 -363 443 -337 q 376 -389 399 -389 z "},"L":{"ha":681,"x_min":63,"x_max":618,"o":"m 63 951 l 229 951 l 229 139 l 618 139 l 618 0 l 63 0 l 63 951 z "},"Ĺ":{"ha":681,"x_min":63,"x_max":618,"o":"m 63 951 l 229 951 l 229 139 l 618 139 l 618 0 l 63 0 l 63 951 m 251 1296 l 390 1296 l 179 1049 l 96 1049 l 251 1296 z "},"Ľ":{"ha":681,"x_min":63,"x_max":618,"o":"m 288 1021 l 399 1021 l 357 785 l 329 785 l 288 1021 m 63 951 l 229 951 l 229 139 l 618 139 l 618 0 l 63 0 l 63 951 z "},"Ļ":{"ha":681,"x_min":63,"x_max":618,"o":"m 63 951 l 229 951 l 229 139 l 618 139 l 618 0 l 63 0 l 63 951 m 311 -389 q 347 -268 347 -319 q 339 -222 347 -243 l 271 -222 l 271 -97 l 410 -97 l 410 -222 l 408 -222 q 393 -298 408 -258 q 356 -363 378 -337 q 311 -389 333 -389 z "},"Ł":{"ha":839,"x_min":63,"x_max":776,"o":"m 388 139 l 776 139 l 776 0 l 221 0 l 221 364 l 201 340 l 63 340 l 221 538 l 221 951 l 388 951 l 388 744 l 413 775 l 551 775 l 388 571 l 388 139 z "},"M":{"ha":1083,"x_min":63,"x_max":1021,"o":"m 257 951 q 542 625 417 821 q 821 951 675 815 l 1021 951 l 1021 0 l 854 0 l 854 771 q 726 638 797 738 q 603 419 654 538 l 478 419 q 369 622 436 526 q 229 771 301 718 l 229 0 l 63 0 l 63 951 l 257 951 z "},"N":{"ha":979,"x_min":63,"x_max":917,"o":"m 247 951 q 531 730 396 861 q 750 465 667 599 l 750 950 l 917 950 l 917 0 l 750 0 l 750 111 q 229 764 589 508 l 229 0 l 63 0 l 63 951 l 247 951 z "},"Ń":{"ha":979,"x_min":63,"x_max":917,"o":"m 247 951 q 531 730 396 861 q 750 465 667 599 l 750 950 l 917 950 l 917 0 l 750 0 l 750 111 q 229 764 589 508 l 229 0 l 63 0 l 63 951 l 247 951 m 499 1296 l 638 1296 l 426 1049 l 343 1049 l 499 1296 z "},"Ň":{"ha":979,"x_min":63,"x_max":917,"o":"m 247 951 q 531 730 396 861 q 750 465 667 599 l 750 950 l 917 950 l 917 0 l 750 0 l 750 111 q 229 764 589 508 l 229 0 l 63 0 l 63 951 l 247 951 m 490 1035 q 285 1282 400 1188 l 347 1354 l 490 1181 l 633 1354 l 696 1282 q 490 1035 571 1194 z "},"Ņ":{"ha":979,"x_min":63,"x_max":917,"o":"m 247 951 q 531 730 396 861 q 750 465 667 599 l 750 950 l 917 950 l 917 0 l 750 0 l 750 111 q 229 764 589 508 l 229 0 l 63 0 l 63 951 l 247 951 m 461 -389 q 497 -268 497 -319 q 489 -222 497 -243 l 421 -222 l 421 -97 l 560 -97 l 560 -222 l 558 -222 q 543 -298 558 -258 q 506 -363 528 -337 q 461 -389 483 -389 z "},"Ŋ":{"ha":979,"x_min":63,"x_max":917,"o":"m 583 0 q 690 10 654 0 q 738 42 725 19 q 750 111 750 65 q 229 764 589 508 l 229 0 l 63 0 l 63 951 l 247 951 q 531 730 396 861 q 750 465 667 599 l 750 950 l 917 950 l 917 0 q 899 -97 917 -68 q 840 -125 882 -125 l 583 -125 l 583 0 z "},"Ñ":{"ha":979,"x_min":63,"x_max":917,"o":"m 247 951 q 531 730 396 861 q 750 465 667 599 l 750 950 l 917 950 l 917 0 l 750 0 l 750 111 q 229 764 589 508 l 229 0 l 63 0 l 63 951 l 247 951 m 236 1047 q 287 1170 236 1121 q 413 1219 338 1219 q 461 1211 438 1219 q 521 1182 485 1203 q 569 1157 550 1164 q 608 1150 589 1150 q 686 1174 651 1150 q 721 1229 721 1199 l 744 1229 q 690 1090 744 1144 q 553 1035 636 1035 q 492 1047 518 1035 q 436 1088 465 1058 q 403 1114 417 1107 q 372 1121 390 1121 q 294 1094 329 1121 q 260 1035 260 1067 l 236 1035 l 236 1047 z "},"O":{"ha":1111,"x_min":63,"x_max":1049,"o":"m 553 -14 q 312 55 425 -14 q 131 238 199 124 q 63 482 63 351 q 130 722 63 610 q 310 899 197 833 q 553 965 422 965 q 798 899 683 965 q 981 721 913 832 q 1049 482 1049 610 q 980 238 1049 353 q 797 55 911 124 q 553 -14 682 -14 m 553 125 q 724 170 649 125 q 840 297 799 215 q 882 482 882 378 q 841 662 882 583 q 725 783 800 740 q 553 826 650 826 q 383 783 456 826 q 269 662 310 740 q 229 481 229 583 q 269 295 229 376 q 383 169 310 214 q 553 125 457 125 z "},"Ó":{"ha":1111,"x_min":63,"x_max":1049,"o":"m 553 -14 q 312 55 425 -14 q 131 238 199 124 q 63 482 63 351 q 130 722 63 610 q 310 899 197 833 q 553 965 422 965 q 798 899 683 965 q 981 721 913 832 q 1049 482 1049 610 q 980 238 1049 353 q 797 55 911 124 q 553 -14 682 -14 m 553 125 q 724 170 649 125 q 840 297 799 215 q 882 482 882 378 q 841 662 882 583 q 725 783 800 740 q 553 826 650 826 q 383 783 456 826 q 269 662 310 740 q 229 481 229 583 q 269 295 229 376 q 383 169 310 214 q 553 125 457 125 m 564 1296 l 703 1296 l 492 1049 l 408 1049 l 564 1296 z "},"Ô":{"ha":1111,"x_min":63,"x_max":1049,"o":"m 553 -14 q 312 55 425 -14 q 131 238 199 124 q 63 482 63 351 q 130 722 63 610 q 310 899 197 833 q 553 965 422 965 q 798 899 683 965 q 981 721 913 832 q 1049 482 1049 610 q 980 238 1049 353 q 797 55 911 124 q 553 -14 682 -14 m 553 125 q 724 170 649 125 q 840 297 799 215 q 882 482 882 378 q 841 662 882 583 q 725 783 800 740 q 553 826 650 826 q 383 783 456 826 q 269 662 310 740 q 229 481 229 583 q 269 295 229 376 q 383 169 310 214 q 553 125 457 125 m 350 1107 q 556 1354 465 1201 q 761 1107 636 1194 l 699 1035 l 556 1208 l 413 1035 l 350 1107 z "},"Ö":{"ha":1111,"x_min":63,"x_max":1049,"o":"m 553 -14 q 312 55 425 -14 q 131 238 199 124 q 63 482 63 351 q 130 722 63 610 q 310 899 197 833 q 553 965 422 965 q 798 899 683 965 q 981 721 913 832 q 1049 482 1049 610 q 980 238 1049 353 q 797 55 911 124 q 553 -14 682 -14 m 553 125 q 724 170 649 125 q 840 297 799 215 q 882 482 882 378 q 841 662 882 583 q 725 783 800 740 q 553 826 650 826 q 383 783 456 826 q 269 662 310 740 q 229 481 229 583 q 269 295 229 376 q 383 169 310 214 q 553 125 457 125 m 382 1160 l 521 1160 l 521 1035 l 382 1035 l 382 1160 m 590 1160 l 729 1160 l 729 1035 l 590 1035 l 590 1160 z "},"Ò":{"ha":1111,"x_min":63,"x_max":1049,"o":"m 553 -14 q 312 55 425 -14 q 131 238 199 124 q 63 482 63 351 q 130 722 63 610 q 310 899 197 833 q 553 965 422 965 q 798 899 683 965 q 981 721 913 832 q 1049 482 1049 610 q 980 238 1049 353 q 797 55 911 124 q 553 -14 682 -14 m 553 125 q 724 170 649 125 q 840 297 799 215 q 882 482 882 378 q 841 662 882 583 q 725 783 800 740 q 553 826 650 826 q 383 783 456 826 q 269 662 310 740 q 229 481 229 583 q 269 295 229 376 q 383 169 310 214 q 553 125 457 125 m 353 1296 l 492 1296 l 647 1049 l 564 1049 l 353 1296 z "},"Ő":{"ha":1111,"x_min":63,"x_max":1049,"o":"m 553 -14 q 312 55 425 -14 q 131 238 199 124 q 63 482 63 351 q 130 722 63 610 q 310 899 197 833 q 553 965 422 965 q 798 899 683 965 q 981 721 913 832 q 1049 482 1049 610 q 980 238 1049 353 q 797 55 911 124 q 553 -14 682 -14 m 553 125 q 724 170 649 125 q 840 297 799 215 q 882 482 882 378 q 841 662 882 583 q 725 783 800 740 q 553 826 650 826 q 383 783 456 826 q 269 662 310 740 q 229 481 229 583 q 269 295 229 376 q 383 169 310 214 q 553 125 457 125 m 474 1296 l 613 1296 l 401 1049 l 318 1049 l 474 1296 m 654 1296 l 793 1296 l 582 1049 l 499 1049 l 654 1296 z "},"Ō":{"ha":1111,"x_min":63,"x_max":1049,"o":"m 553 -14 q 312 55 425 -14 q 131 238 199 124 q 63 482 63 351 q 130 722 63 610 q 310 899 197 833 q 553 965 422 965 q 798 899 683 965 q 981 721 913 832 q 1049 482 1049 610 q 980 238 1049 353 q 797 55 911 124 q 553 -14 682 -14 m 553 125 q 724 170 649 125 q 840 297 799 215 q 882 482 882 378 q 841 662 882 583 q 725 783 800 740 q 553 826 650 826 q 383 783 456 826 q 269 662 310 740 q 229 481 229 583 q 269 295 229 376 q 383 169 310 214 q 553 125 457 125 m 382 1132 l 729 1132 l 729 1049 l 382 1049 l 382 1132 z "},"Ø":{"ha":1111,"x_min":63,"x_max":1049,"o":"m 550 -14 q 310 55 422 -14 q 130 238 197 124 q 63 483 63 353 q 129 724 63 613 q 308 900 196 835 q 551 965 421 965 q 798 899 683 965 q 981 722 913 833 q 1049 483 1049 611 q 979 240 1049 354 q 794 56 910 125 q 550 -14 679 -14 m 653 811 q 543 826 599 826 q 377 785 449 826 q 267 668 306 744 q 229 490 229 592 q 260 323 229 399 q 351 197 292 247 l 653 811 m 554 125 q 724 169 650 125 q 840 294 799 214 q 882 476 882 374 q 851 634 882 563 q 763 753 819 706 l 461 139 q 554 125 501 125 z "},"Õ":{"ha":1111,"x_min":63,"x_max":1049,"o":"m 553 -14 q 312 55 425 -14 q 131 238 199 124 q 63 482 63 351 q 130 722 63 610 q 310 899 197 833 q 553 965 422 965 q 798 899 683 965 q 981 721 913 832 q 1049 482 1049 610 q 980 238 1049 353 q 797 55 911 124 q 553 -14 682 -14 m 553 125 q 724 170 649 125 q 840 297 799 215 q 882 482 882 378 q 841 662 882 583 q 725 783 800 740 q 553 826 650 826 q 383 783 456 826 q 269 662 310 740 q 229 481 229 583 q 269 295 229 376 q 383 169 310 214 q 553 125 457 125 m 301 1047 q 352 1170 301 1121 q 478 1219 403 1219 q 526 1211 503 1219 q 586 1182 550 1203 q 635 1157 615 1164 q 674 1150 654 1150 q 751 1174 717 1150 q 786 1229 786 1199 l 810 1229 q 756 1090 810 1144 q 618 1035 701 1035 q 557 1047 583 1035 q 501 1088 531 1058 q 469 1114 482 1107 q 438 1121 456 1121 q 360 1094 394 1121 q 325 1035 325 1067 l 301 1035 l 301 1047 z "},"Œ":{"ha":1632,"x_min":63,"x_max":1569,"o":"m 550 -14 q 310 55 422 -14 q 130 238 197 124 q 63 483 63 353 q 129 724 63 613 q 308 900 196 835 q 551 965 421 965 q 728 932 643 965 q 882 839 814 899 l 882 951 l 1542 951 l 1542 813 l 1049 813 l 1049 618 l 1569 618 l 1569 479 l 1049 479 l 1049 139 l 1542 139 l 1542 0 l 882 0 l 882 121 q 726 22 813 58 q 550 -14 640 -14 m 557 125 q 725 169 651 125 q 840 294 799 214 q 882 476 882 374 q 840 659 882 579 q 721 783 797 739 q 544 826 644 826 q 315 735 400 826 q 229 490 229 644 q 271 301 229 383 q 387 172 313 218 q 557 125 461 125 z "},"P":{"ha":813,"x_min":63,"x_max":750,"o":"m 435 951 q 592 917 519 951 q 707 822 664 882 q 750 692 750 763 q 618 440 750 572 q 229 167 486 307 l 229 0 l 63 0 l 63 951 l 435 951 m 229 325 q 496 524 408 436 q 583 681 583 611 q 534 774 583 736 q 410 813 485 813 l 229 813 l 229 325 z "},"Þ":{"ha":743,"x_min":63,"x_max":681,"o":"m 229 951 l 229 854 l 365 854 q 523 819 450 854 q 638 725 596 785 q 681 594 681 665 q 647 467 681 519 q 522 351 614 414 q 229 181 429 289 l 229 0 l 63 0 l 63 951 l 229 951 m 229 339 q 260 357 236 344 q 429 462 344 397 q 514 594 514 526 q 463 680 514 644 q 340 715 413 715 l 229 715 l 229 339 z "},"Q":{"ha":1115,"x_min":63,"x_max":1053,"o":"m 553 -14 q 312 55 425 -14 q 131 238 199 124 q 63 482 63 351 q 130 722 63 610 q 310 899 197 833 q 553 965 422 965 q 798 899 683 965 q 981 721 913 832 q 1049 482 1049 610 q 1015 309 1049 393 q 919 157 981 225 l 1053 0 l 871 0 l 817 68 q 553 -14 693 -14 m 553 125 q 726 172 651 125 l 656 250 l 763 338 l 824 268 q 882 482 882 358 q 841 662 882 583 q 725 783 800 740 q 553 826 650 826 q 383 783 456 826 q 269 662 310 740 q 229 481 229 583 q 269 295 229 376 q 383 169 310 214 q 553 125 457 125 z "},"R":{"ha":826,"x_min":63,"x_max":764,"o":"m 435 951 q 604 918 529 951 q 722 826 679 885 q 764 694 764 768 q 700 524 764 604 q 517 385 636 444 l 761 0 l 596 0 l 392 322 l 229 256 l 229 0 l 63 0 l 63 951 l 435 951 m 229 388 q 503 531 410 457 q 597 676 597 604 q 546 772 597 732 q 424 813 494 813 l 229 813 l 229 388 z "},"Ŕ":{"ha":826,"x_min":63,"x_max":764,"o":"m 435 951 q 604 918 529 951 q 722 826 679 885 q 764 694 764 768 q 700 524 764 604 q 517 385 636 444 l 761 0 l 596 0 l 392 322 l 229 256 l 229 0 l 63 0 l 63 951 l 435 951 m 229 388 q 503 531 410 457 q 597 676 597 604 q 546 772 597 732 q 424 813 494 813 l 229 813 l 229 388 m 422 1296 l 561 1296 l 350 1049 l 267 1049 l 422 1296 z "},"Ř":{"ha":826,"x_min":63,"x_max":764,"o":"m 435 951 q 604 918 529 951 q 722 826 679 885 q 764 694 764 768 q 700 524 764 604 q 517 385 636 444 l 761 0 l 596 0 l 392 322 l 229 256 l 229 0 l 63 0 l 63 951 l 435 951 m 229 388 q 503 531 410 457 q 597 676 597 604 q 546 772 597 732 q 424 813 494 813 l 229 813 l 229 388 m 414 1035 q 208 1282 324 1188 l 271 1354 l 414 1181 l 557 1354 l 619 1282 q 414 1035 494 1194 z "},"Ŗ":{"ha":826,"x_min":63,"x_max":764,"o":"m 435 951 q 604 918 529 951 q 722 826 679 885 q 764 694 764 768 q 700 524 764 604 q 517 385 636 444 l 761 0 l 596 0 l 392 322 l 229 256 l 229 0 l 63 0 l 63 951 l 435 951 m 229 388 q 503 531 410 457 q 597 676 597 604 q 546 772 597 732 q 424 813 494 813 l 229 813 l 229 388 m 385 -389 q 421 -268 421 -319 q 413 -222 421 -243 l 344 -222 l 344 -97 l 483 -97 l 483 -222 l 482 -222 q 467 -298 482 -258 q 429 -363 451 -337 q 385 -389 407 -389 z "},"S":{"ha":760,"x_min":63,"x_max":697,"o":"m 468 125 q 510 147 490 125 q 531 193 531 169 q 484 287 531 222 q 319 486 438 351 q 149 693 199 625 q 100 790 100 761 q 121 876 100 836 q 176 941 142 917 q 249 965 210 965 l 665 965 l 665 826 l 294 826 q 267 811 267 826 q 286 770 267 796 q 350 699 306 744 q 613 394 528 517 q 697 194 697 271 q 633 45 697 104 q 471 -14 569 -14 l 63 -14 l 63 125 l 468 125 z "},"Ś":{"ha":760,"x_min":63,"x_max":697,"o":"m 468 125 q 510 147 490 125 q 531 193 531 169 q 484 287 531 222 q 319 486 438 351 q 149 693 199 625 q 100 790 100 761 q 121 876 100 836 q 176 941 142 917 q 249 965 210 965 l 665 965 l 665 826 l 294 826 q 267 811 267 826 q 286 770 267 796 q 350 699 306 744 q 613 394 528 517 q 697 194 697 271 q 633 45 697 104 q 471 -14 569 -14 l 63 -14 l 63 125 l 468 125 m 389 1296 l 528 1296 l 317 1049 l 233 1049 l 389 1296 z "},"Š":{"ha":760,"x_min":63,"x_max":697,"o":"m 468 125 q 510 147 490 125 q 531 193 531 169 q 484 287 531 222 q 319 486 438 351 q 149 693 199 625 q 100 790 100 761 q 121 876 100 836 q 176 941 142 917 q 249 965 210 965 l 665 965 l 665 826 l 294 826 q 267 811 267 826 q 286 770 267 796 q 350 699 306 744 q 613 394 528 517 q 697 194 697 271 q 633 45 697 104 q 471 -14 569 -14 l 63 -14 l 63 125 l 468 125 m 381 1035 q 175 1282 290 1188 l 238 1354 l 381 1181 l 524 1354 l 586 1282 q 381 1035 461 1194 z "},"Ş":{"ha":760,"x_min":63,"x_max":697,"o":"m 385 -14 l 357 -62 l 375 -62 q 456 -81 428 -62 q 485 -135 485 -100 q 453 -216 485 -186 q 375 -246 422 -246 q 276 -176 276 -246 l 326 -176 q 375 -199 351 -199 q 389 -187 383 -199 q 394 -162 394 -176 q 389 -128 394 -146 q 375 -110 383 -110 q 345 -115 364 -110 q 308 -135 326 -119 l 276 -119 l 331 -14 l 63 -14 l 63 125 l 468 125 q 510 147 490 125 q 531 193 531 169 q 484 287 531 222 q 319 486 438 351 q 149 693 199 625 q 100 790 100 761 q 121 876 100 836 q 176 941 142 917 q 249 965 210 965 l 665 965 l 665 826 l 294 826 q 267 811 267 826 q 286 770 267 796 q 350 699 306 744 q 613 394 528 517 q 697 194 697 271 q 633 45 697 104 q 471 -14 569 -14 l 385 -14 z "},"Ș":{"ha":760,"x_min":63,"x_max":697,"o":"m 468 125 q 510 147 490 125 q 531 193 531 169 q 484 287 531 222 q 319 486 438 351 q 149 693 199 625 q 100 790 100 761 q 121 876 100 836 q 176 941 142 917 q 249 965 210 965 l 665 965 l 665 826 l 294 826 q 267 811 267 826 q 286 770 267 796 q 350 699 306 744 q 613 394 528 517 q 697 194 697 271 q 633 45 697 104 q 471 -14 569 -14 l 63 -14 l 63 125 l 468 125 m 351 -389 q 388 -268 388 -319 q 379 -222 388 -243 l 311 -222 l 311 -97 l 450 -97 l 450 -222 l 449 -222 q 433 -298 449 -258 q 396 -363 418 -337 q 351 -389 374 -389 z "},"ẞ":{"ha":842,"x_min":63,"x_max":779,"o":"m 63 590 l 63 715 l 111 715 l 111 826 q 127 925 111 899 q 188 951 143 951 l 726 951 l 726 828 l 613 594 q 744 472 708 526 q 779 342 779 418 q 725 159 779 236 q 569 41 671 82 q 328 0 467 0 l 328 138 q 481 163 413 138 q 588 233 549 189 q 626 332 626 278 q 579 432 626 393 q 458 471 532 471 l 417 522 l 563 826 l 333 826 q 267 819 283 826 q 250 792 250 813 l 250 0 l 111 0 l 111 590 l 63 590 z "},"T":{"ha":708,"x_min":63,"x_max":646,"o":"m 271 813 l 63 813 l 63 951 l 646 951 l 646 813 l 438 813 l 438 0 l 271 0 l 271 813 z "},"Ŧ":{"ha":708,"x_min":63,"x_max":646,"o":"m 271 576 l 117 576 l 117 715 l 271 715 l 271 813 l 63 813 l 63 951 l 646 951 l 646 813 l 438 813 l 438 715 l 583 715 l 583 576 l 438 576 l 438 0 l 271 0 l 271 576 z "},"Ť":{"ha":708,"x_min":63,"x_max":646,"o":"m 271 813 l 63 813 l 63 951 l 646 951 l 646 813 l 438 813 l 438 0 l 271 0 l 271 813 m 354 1035 q 149 1282 264 1188 l 211 1354 l 354 1181 l 497 1354 l 560 1282 q 354 1035 435 1194 z "},"Ţ":{"ha":708,"x_min":63,"x_max":646,"o":"m 365 0 l 331 -62 l 349 -62 q 430 -81 401 -62 q 458 -135 458 -100 q 427 -216 458 -186 q 349 -246 396 -246 q 250 -176 250 -246 l 300 -176 q 349 -199 325 -199 q 363 -187 357 -199 q 368 -162 368 -176 q 363 -128 368 -146 q 349 -110 357 -110 q 319 -115 338 -110 q 282 -135 300 -119 l 250 -119 l 311 0 l 271 0 l 271 813 l 63 813 l 63 951 l 646 951 l 646 813 l 438 813 l 438 0 l 365 0 z "},"Ț":{"ha":708,"x_min":63,"x_max":646,"o":"m 271 813 l 63 813 l 63 951 l 646 951 l 646 813 l 438 813 l 438 0 l 271 0 l 271 813 m 325 -389 q 361 -268 361 -319 q 353 -222 361 -243 l 285 -222 l 285 -97 l 424 -97 l 424 -222 l 422 -222 q 407 -298 422 -258 q 369 -363 392 -337 q 325 -389 347 -389 z "},"U":{"ha":889,"x_min":63,"x_max":826,"o":"m 563 0 q 269 72 388 0 q 96 279 150 143 q 63 446 63 365 l 63 951 l 229 951 l 229 446 q 660 139 229 139 l 660 951 l 826 951 l 826 0 l 563 0 z "},"Ú":{"ha":889,"x_min":63,"x_max":826,"o":"m 563 0 q 269 72 388 0 q 96 279 150 143 q 63 446 63 365 l 63 951 l 229 951 l 229 446 q 660 139 229 139 l 660 951 l 826 951 l 826 0 l 563 0 m 481 1296 l 619 1296 l 408 1049 l 325 1049 l 481 1296 z "},"Û":{"ha":889,"x_min":63,"x_max":826,"o":"m 563 0 q 269 72 388 0 q 96 279 150 143 q 63 446 63 365 l 63 951 l 229 951 l 229 446 q 660 139 229 139 l 660 951 l 826 951 l 826 0 l 563 0 m 239 1107 q 444 1354 354 1201 q 650 1107 525 1194 l 588 1035 l 444 1208 l 301 1035 l 239 1107 z "},"Ü":{"ha":889,"x_min":63,"x_max":826,"o":"m 563 0 q 269 72 388 0 q 96 279 150 143 q 63 446 63 365 l 63 951 l 229 951 l 229 446 q 660 139 229 139 l 660 951 l 826 951 l 826 0 l 563 0 m 271 1160 l 410 1160 l 410 1035 l 271 1035 l 271 1160 m 479 1160 l 618 1160 l 618 1035 l 479 1035 l 479 1160 z "},"Ù":{"ha":889,"x_min":63,"x_max":826,"o":"m 563 0 q 269 72 388 0 q 96 279 150 143 q 63 446 63 365 l 63 951 l 229 951 l 229 446 q 660 139 229 139 l 660 951 l 826 951 l 826 0 l 563 0 m 228 1296 l 367 1296 l 522 1049 l 439 1049 l 228 1296 z "},"Ű":{"ha":889,"x_min":63,"x_max":826,"o":"m 563 0 q 269 72 388 0 q 96 279 150 143 q 63 446 63 365 l 63 951 l 229 951 l 229 446 q 660 139 229 139 l 660 951 l 826 951 l 826 0 l 563 0 m 363 1296 l 501 1296 l 290 1049 l 207 1049 l 363 1296 m 543 1296 l 682 1296 l 471 1049 l 388 1049 l 543 1296 z "},"Ū":{"ha":889,"x_min":63,"x_max":826,"o":"m 563 0 q 269 72 388 0 q 96 279 150 143 q 63 446 63 365 l 63 951 l 229 951 l 229 446 q 660 139 229 139 l 660 951 l 826 951 l 826 0 l 563 0 m 271 1132 l 618 1132 l 618 1049 l 271 1049 l 271 1132 z "},"Ų":{"ha":889,"x_min":63,"x_max":826,"o":"m 738 0 q 702 -51 713 -21 q 692 -107 692 -81 q 709 -150 692 -136 q 765 -164 726 -164 q 792 -158 783 -164 l 800 -169 q 728 -204 769 -192 q 647 -217 688 -217 q 600 -194 619 -217 q 581 -139 581 -171 q 601 -60 581 -99 q 664 0 622 -21 l 563 0 q 269 72 388 0 q 96 279 150 143 q 63 446 63 365 l 63 951 l 229 951 l 229 446 q 660 139 229 139 l 660 951 l 826 951 l 826 0 l 738 0 z "},"Ů":{"ha":889,"x_min":63,"x_max":826,"o":"m 563 0 q 269 72 388 0 q 96 279 150 143 q 63 446 63 365 l 63 951 l 229 951 l 229 446 q 660 139 229 139 l 660 951 l 826 951 l 826 0 l 563 0 m 444 1035 q 356 1069 393 1035 q 319 1153 319 1104 q 356 1236 319 1201 q 444 1271 393 1271 q 533 1236 496 1271 q 569 1153 569 1201 q 533 1069 569 1104 q 444 1035 496 1035 m 444 1097 q 490 1113 472 1097 q 507 1150 507 1128 q 488 1191 507 1174 q 444 1208 469 1208 q 401 1191 419 1208 q 382 1150 382 1174 q 399 1113 382 1128 q 444 1097 417 1097 z "},"V":{"ha":960,"x_min":63,"x_max":897,"o":"m 394 -1 q 63 965 200 410 l 215 965 q 349 556 240 865 q 479 215 458 246 q 563 401 510 261 q 664 703 615 542 q 731 964 713 864 l 897 964 q 730 380 804 593 q 561 -1 656 167 l 394 -1 z "},"W":{"ha":1404,"x_min":63,"x_max":1342,"o":"m 394 -1 q 63 965 200 410 l 215 965 q 349 554 240 864 q 479 215 458 244 q 619 563 525 281 q 507 965 557 753 l 660 965 q 791 581 667 933 q 924 215 915 228 q 1007 401 954 261 q 1108 703 1060 542 q 1175 964 1157 864 l 1342 964 q 1174 380 1249 593 q 1006 -1 1100 167 l 839 -1 q 706 314 779 125 q 561 -1 651 165 l 394 -1 z "},"Ẃ":{"ha":1404,"x_min":63,"x_max":1342,"o":"m 394 -1 q 63 965 200 410 l 215 965 q 349 554 240 864 q 479 215 458 244 q 619 563 525 281 q 507 965 557 753 l 660 965 q 791 581 667 933 q 924 215 915 228 q 1007 401 954 261 q 1108 703 1060 542 q 1175 964 1157 864 l 1342 964 q 1174 380 1249 593 q 1006 -1 1100 167 l 839 -1 q 706 314 779 125 q 561 -1 651 165 l 394 -1 m 711 1296 l 850 1296 l 639 1049 l 556 1049 l 711 1296 z "},"Ŵ":{"ha":1404,"x_min":63,"x_max":1342,"o":"m 394 -1 q 63 965 200 410 l 215 965 q 349 554 240 864 q 479 215 458 244 q 619 563 525 281 q 507 965 557 753 l 660 965 q 791 581 667 933 q 924 215 915 228 q 1007 401 954 261 q 1108 703 1060 542 q 1175 964 1157 864 l 1342 964 q 1174 380 1249 593 q 1006 -1 1100 167 l 839 -1 q 706 314 779 125 q 561 -1 651 165 l 394 -1 m 497 1107 q 703 1354 613 1201 q 908 1107 783 1194 l 846 1035 l 703 1208 l 560 1035 l 497 1107 z "},"Ẅ":{"ha":1404,"x_min":63,"x_max":1342,"o":"m 394 -1 q 63 965 200 410 l 215 965 q 349 554 240 864 q 479 215 458 244 q 619 563 525 281 q 507 965 557 753 l 660 965 q 791 581 667 933 q 924 215 915 228 q 1007 401 954 261 q 1108 703 1060 542 q 1175 964 1157 864 l 1342 964 q 1174 380 1249 593 q 1006 -1 1100 167 l 839 -1 q 706 314 779 125 q 561 -1 651 165 l 394 -1 m 494 1160 l 633 1160 l 633 1035 l 494 1035 l 494 1160 m 703 1160 l 842 1160 l 842 1035 l 703 1035 l 703 1160 z "},"Ẁ":{"ha":1404,"x_min":63,"x_max":1342,"o":"m 394 -1 q 63 965 200 410 l 215 965 q 349 554 240 864 q 479 215 458 244 q 619 563 525 281 q 507 965 557 753 l 660 965 q 791 581 667 933 q 924 215 915 228 q 1007 401 954 261 q 1108 703 1060 542 q 1175 964 1157 864 l 1342 964 q 1174 380 1249 593 q 1006 -1 1100 167 l 839 -1 q 706 314 779 125 q 561 -1 651 165 l 394 -1 m 556 1296 l 694 1296 l 850 1049 l 767 1049 l 556 1296 z "},"X":{"ha":1000,"x_min":63,"x_max":938,"o":"m 400 496 l 90 951 l 292 951 l 500 644 l 708 951 l 910 951 l 601 496 l 938 0 l 736 0 l 500 347 l 264 0 l 63 0 l 400 496 z "},"Y":{"ha":892,"x_min":63,"x_max":829,"o":"m 361 507 l 63 951 l 231 951 l 444 628 l 656 951 l 829 951 l 528 507 l 528 0 l 361 0 l 361 507 z "},"Ý":{"ha":892,"x_min":63,"x_max":829,"o":"m 361 507 l 63 951 l 231 951 l 444 628 l 656 951 l 829 951 l 528 507 l 528 0 l 361 0 l 361 507 m 510 1296 l 649 1296 l 438 1049 l 354 1049 l 510 1296 z "},"Ŷ":{"ha":892,"x_min":63,"x_max":829,"o":"m 361 507 l 63 951 l 231 951 l 444 628 l 656 951 l 829 951 l 528 507 l 528 0 l 361 0 l 361 507 m 240 1107 q 446 1354 356 1201 q 651 1107 526 1194 l 589 1035 l 446 1208 l 303 1035 l 240 1107 z "},"Ÿ":{"ha":892,"x_min":63,"x_max":829,"o":"m 361 507 l 63 951 l 231 951 l 444 628 l 656 951 l 829 951 l 528 507 l 528 0 l 361 0 l 361 507 m 272 1160 l 411 1160 l 411 1035 l 272 1035 l 272 1160 m 481 1160 l 619 1160 l 619 1035 l 481 1035 l 481 1160 z "},"Ỳ":{"ha":892,"x_min":63,"x_max":829,"o":"m 361 507 l 63 951 l 231 951 l 444 628 l 656 951 l 829 951 l 528 507 l 528 0 l 361 0 l 361 507 m 215 1296 l 354 1296 l 510 1049 l 426 1049 l 215 1296 z "},"Z":{"ha":897,"x_min":63,"x_max":835,"o":"m 556 813 l 171 813 l 171 951 l 835 951 l 342 139 l 717 139 l 717 0 l 63 0 l 556 813 z "},"Ź":{"ha":897,"x_min":63,"x_max":835,"o":"m 556 813 l 171 813 l 171 951 l 835 951 l 342 139 l 717 139 l 717 0 l 63 0 l 556 813 m 457 1296 l 596 1296 l 385 1049 l 301 1049 l 457 1296 z "},"Ž":{"ha":897,"x_min":63,"x_max":835,"o":"m 556 813 l 171 813 l 171 951 l 835 951 l 342 139 l 717 139 l 717 0 l 63 0 l 556 813 m 449 1035 q 243 1282 358 1188 l 306 1354 l 449 1181 l 592 1354 l 654 1282 q 449 1035 529 1194 z "},"Ż":{"ha":897,"x_min":63,"x_max":835,"o":"m 556 813 l 171 813 l 171 951 l 835 951 l 342 139 l 717 139 l 717 0 l 63 0 l 556 813 m 379 1160 l 518 1160 l 518 1035 l 379 1035 l 379 1160 z "},"a":{"ha":697,"x_min":49,"x_max":654,"o":"m 254 0 q 150 22 197 0 q 76 81 103 43 q 49 165 49 119 q 126 331 49 240 q 372 546 203 422 q 274 592 331 578 q 136 607 217 607 q 49 604 107 607 l 49 729 q 425 668 297 729 q 603 453 553 607 q 654 0 654 300 l 254 0 m 513 125 q 458 453 513 332 q 323 367 389 419 q 215 263 257 315 q 174 175 174 210 q 199 137 174 149 q 281 125 225 125 l 513 125 z "},"á":{"ha":697,"x_min":49,"x_max":654,"o":"m 254 0 q 150 22 197 0 q 76 81 103 43 q 49 165 49 119 q 126 331 49 240 q 372 546 203 422 q 274 592 331 578 q 136 607 217 607 q 49 604 107 607 l 49 729 q 425 668 297 729 q 603 453 553 607 q 654 0 654 300 l 254 0 m 513 125 q 458 453 513 332 q 323 367 389 419 q 215 263 257 315 q 174 175 174 210 q 199 137 174 149 q 281 125 225 125 l 513 125 m 357 1060 l 496 1060 l 285 813 l 201 813 l 357 1060 z "},"ă":{"ha":697,"x_min":49,"x_max":654,"o":"m 254 0 q 150 22 197 0 q 76 81 103 43 q 49 165 49 119 q 126 331 49 240 q 372 546 203 422 q 274 592 331 578 q 136 607 217 607 q 49 604 107 607 l 49 729 q 425 668 297 729 q 603 453 553 607 q 654 0 654 300 l 254 0 m 513 125 q 458 453 513 332 q 323 367 389 419 q 215 263 257 315 q 174 175 174 210 q 199 137 174 149 q 281 125 225 125 l 513 125 m 349 813 q 264 836 304 813 q 199 901 224 860 q 175 992 175 942 q 254 934 208 958 q 343 910 300 910 q 437 935 382 910 q 522 992 492 961 q 498 901 522 942 q 433 836 474 860 q 349 813 393 813 z "},"â":{"ha":697,"x_min":49,"x_max":654,"o":"m 254 0 q 150 22 197 0 q 76 81 103 43 q 49 165 49 119 q 126 331 49 240 q 372 546 203 422 q 274 592 331 578 q 136 607 217 607 q 49 604 107 607 l 49 729 q 425 668 297 729 q 603 453 553 607 q 654 0 654 300 l 254 0 m 513 125 q 458 453 513 332 q 323 367 389 419 q 215 263 257 315 q 174 175 174 210 q 199 137 174 149 q 281 125 225 125 l 513 125 m 143 871 q 349 1118 258 965 q 554 871 429 958 l 492 799 l 349 972 l 206 799 l 143 871 z "},"ä":{"ha":697,"x_min":49,"x_max":654,"o":"m 254 0 q 150 22 197 0 q 76 81 103 43 q 49 165 49 119 q 126 331 49 240 q 372 546 203 422 q 274 592 331 578 q 136 607 217 607 q 49 604 107 607 l 49 729 q 425 668 297 729 q 603 453 553 607 q 654 0 654 300 l 254 0 m 513 125 q 458 453 513 332 q 323 367 389 419 q 215 263 257 315 q 174 175 174 210 q 199 137 174 149 q 281 125 225 125 l 513 125 m 175 924 l 314 924 l 314 799 l 175 799 l 175 924 m 383 924 l 522 924 l 522 799 l 383 799 l 383 924 z "},"à":{"ha":697,"x_min":49,"x_max":654,"o":"m 254 0 q 150 22 197 0 q 76 81 103 43 q 49 165 49 119 q 126 331 49 240 q 372 546 203 422 q 274 592 331 578 q 136 607 217 607 q 49 604 107 607 l 49 729 q 425 668 297 729 q 603 453 553 607 q 654 0 654 300 l 254 0 m 513 125 q 458 453 513 332 q 323 367 389 419 q 215 263 257 315 q 174 175 174 210 q 199 137 174 149 q 281 125 225 125 l 513 125 m 118 1060 l 257 1060 l 413 813 l 329 813 l 118 1060 z "},"ā":{"ha":697,"x_min":49,"x_max":654,"o":"m 254 0 q 150 22 197 0 q 76 81 103 43 q 49 165 49 119 q 126 331 49 240 q 372 546 203 422 q 274 592 331 578 q 136 607 217 607 q 49 604 107 607 l 49 729 q 425 668 297 729 q 603 453 553 607 q 654 0 654 300 l 254 0 m 513 125 q 458 453 513 332 q 323 367 389 419 q 215 263 257 315 q 174 175 174 210 q 199 137 174 149 q 281 125 225 125 l 513 125 m 106 896 l 453 896 l 453 813 l 106 813 l 106 896 z "},"ą":{"ha":697,"x_min":49,"x_max":654,"o":"m 593 -164 q 619 -158 611 -164 l 628 -169 q 556 -204 597 -192 q 475 -217 515 -217 q 428 -194 447 -217 q 408 -139 408 -171 q 430 -60 408 -99 q 492 0 451 -21 l 254 0 q 150 22 197 0 q 76 81 103 43 q 49 165 49 119 q 126 331 49 240 q 372 546 203 422 q 274 592 331 578 q 136 607 217 607 q 49 604 107 607 l 49 729 q 425 668 297 729 q 603 453 553 607 q 654 0 654 300 l 565 0 q 530 -51 540 -21 q 519 -107 519 -81 q 537 -150 519 -136 q 593 -164 554 -164 m 174 175 q 199 137 174 149 q 281 125 225 125 l 513 125 q 458 453 513 332 q 323 367 389 419 q 215 263 257 315 q 174 175 174 210 z "},"å":{"ha":697,"x_min":49,"x_max":654,"o":"m 254 0 q 150 22 197 0 q 76 81 103 43 q 49 165 49 119 q 126 331 49 240 q 372 546 203 422 q 274 592 331 578 q 136 607 217 607 q 49 604 107 607 l 49 729 q 425 668 297 729 q 603 453 553 607 q 654 0 654 300 l 254 0 m 513 125 q 458 453 513 332 q 323 367 389 419 q 215 263 257 315 q 174 175 174 210 q 199 137 174 149 q 281 125 225 125 l 513 125 m 349 799 q 260 833 297 799 q 224 917 224 868 q 260 1000 224 965 q 349 1035 297 1035 q 437 1000 400 1035 q 474 917 474 965 q 437 833 474 868 q 349 799 400 799 m 349 861 q 394 876 376 861 q 411 914 411 892 q 392 955 411 938 q 349 972 374 972 q 305 955 324 972 q 286 914 286 938 q 303 876 286 892 q 349 861 321 861 z "},"ã":{"ha":697,"x_min":49,"x_max":654,"o":"m 254 0 q 150 22 197 0 q 76 81 103 43 q 49 165 49 119 q 126 331 49 240 q 372 546 203 422 q 274 592 331 578 q 136 607 217 607 q 49 604 107 607 l 49 729 q 425 668 297 729 q 603 453 553 607 q 654 0 654 300 l 254 0 m 513 125 q 458 453 513 332 q 323 367 389 419 q 215 263 257 315 q 174 175 174 210 q 199 137 174 149 q 281 125 225 125 l 513 125 m 94 811 q 145 934 94 885 q 271 983 196 983 q 319 975 296 983 q 379 946 343 967 q 428 921 408 928 q 467 914 447 914 q 544 938 510 914 q 579 993 579 963 l 603 993 q 549 853 603 908 q 411 799 494 799 q 350 810 376 799 q 294 851 324 822 q 262 878 275 871 q 231 885 249 885 q 153 858 188 885 q 118 799 118 831 l 94 799 l 94 811 z "},"æ":{"ha":1257,"x_min":49,"x_max":1214,"o":"m 879 -14 q 654 49 746 -14 l 654 0 l 254 0 q 150 22 197 0 q 76 81 103 43 q 49 165 49 119 q 126 331 49 240 q 372 546 203 422 q 142 607 290 607 q 106 606 121 607 q 82 604 92 604 l 49 604 l 49 729 q 374 690 257 729 q 553 557 492 650 q 686 683 604 638 q 863 729 768 729 q 1072 668 974 729 q 1214 510 1169 607 l 669 232 q 753 142 700 174 q 876 111 807 111 q 994 142 944 111 q 1088 246 1043 174 l 1189 147 q 1050 24 1124 63 q 879 -14 976 -14 m 1019 536 q 953 583 997 561 q 881 604 910 604 q 694 540 753 604 q 635 339 635 476 l 1019 536 m 513 125 q 501 299 513 222 q 458 453 488 393 q 323 367 389 419 q 215 263 257 315 q 174 175 174 210 q 199 137 174 149 q 281 125 225 125 l 513 125 z "},"b":{"ha":703,"x_min":49,"x_max":660,"o":"m 188 951 l 188 790 q 518 554 376 690 q 660 260 660 418 q 585 69 660 139 q 379 0 511 0 l 49 0 l 49 951 l 188 951 m 382 125 q 485 162 450 125 q 521 267 521 199 q 471 414 521 344 q 353 535 421 483 q 188 650 286 588 l 188 125 l 382 125 z "},"c":{"ha":772,"x_min":49,"x_max":729,"o":"m 428 -14 q 233 35 319 -14 q 97 169 146 83 q 49 360 49 254 q 96 549 49 465 q 226 681 143 633 q 414 729 310 729 q 594 687 511 729 q 729 569 678 644 l 622 493 q 415 604 539 604 q 251 538 315 604 q 188 367 188 471 q 219 236 188 294 q 306 144 251 178 q 428 111 361 111 q 535 138 486 111 q 614 211 583 164 l 708 108 q 587 17 660 49 q 428 -14 514 -14 z "},"ć":{"ha":772,"x_min":49,"x_max":729,"o":"m 428 -14 q 233 35 319 -14 q 97 169 146 83 q 49 360 49 254 q 96 549 49 465 q 226 681 143 633 q 414 729 310 729 q 594 687 511 729 q 729 569 678 644 l 622 493 q 415 604 539 604 q 251 538 315 604 q 188 367 188 471 q 219 236 188 294 q 306 144 251 178 q 428 111 361 111 q 535 138 486 111 q 614 211 583 164 l 708 108 q 587 17 660 49 q 428 -14 514 -14 m 394 1060 l 533 1060 l 322 813 l 239 813 l 394 1060 z "},"č":{"ha":772,"x_min":49,"x_max":729,"o":"m 428 -14 q 233 35 319 -14 q 97 169 146 83 q 49 360 49 254 q 96 549 49 465 q 226 681 143 633 q 414 729 310 729 q 594 687 511 729 q 729 569 678 644 l 622 493 q 415 604 539 604 q 251 538 315 604 q 188 367 188 471 q 219 236 188 294 q 306 144 251 178 q 428 111 361 111 q 535 138 486 111 q 614 211 583 164 l 708 108 q 587 17 660 49 q 428 -14 514 -14 m 386 799 q 181 1046 296 951 l 243 1118 l 386 944 l 529 1118 l 592 1046 q 386 799 467 958 z "},"ç":{"ha":772,"x_min":49,"x_max":729,"o":"m 428 111 q 535 138 486 111 q 614 211 583 164 l 708 108 q 589 19 661 50 q 432 -14 517 -12 l 404 -62 l 422 -62 q 503 -81 475 -62 q 532 -135 532 -100 q 501 -216 532 -186 q 422 -246 469 -246 q 324 -176 324 -246 l 374 -176 q 422 -199 399 -199 q 436 -187 431 -199 q 442 -162 442 -176 q 436 -128 442 -146 q 422 -110 431 -110 q 392 -115 411 -110 q 356 -135 374 -119 l 324 -119 l 379 -11 q 208 49 283 -1 q 90 181 132 100 q 49 360 49 261 q 96 549 49 465 q 226 681 143 633 q 414 729 310 729 q 594 687 511 729 q 729 569 678 644 l 622 493 q 415 604 539 604 q 251 538 315 604 q 188 367 188 471 q 219 236 188 294 q 306 144 251 178 q 428 111 361 111 z "},"ċ":{"ha":772,"x_min":49,"x_max":729,"o":"m 428 -14 q 233 35 319 -14 q 97 169 146 83 q 49 360 49 254 q 96 549 49 465 q 226 681 143 633 q 414 729 310 729 q 594 687 511 729 q 729 569 678 644 l 622 493 q 415 604 539 604 q 251 538 315 604 q 188 367 188 471 q 219 236 188 294 q 306 144 251 178 q 428 111 361 111 q 535 138 486 111 q 614 211 583 164 l 708 108 q 587 17 660 49 q 428 -14 514 -14 m 317 924 l 456 924 l 456 799 l 317 799 l 317 924 z "},"d":{"ha":750,"x_min":49,"x_max":707,"o":"m 413 -14 q 229 37 313 -14 q 97 174 146 88 q 49 365 49 261 q 95 550 49 467 q 221 681 142 633 q 397 729 300 729 q 489 719 440 729 q 568 694 538 710 l 568 965 l 707 965 l 707 0 l 568 0 l 568 14 q 496 -6 539 1 q 413 -14 453 -14 m 406 111 q 523 128 478 111 q 568 172 568 144 l 568 532 q 522 583 568 561 q 415 604 476 604 q 251 539 314 604 q 188 367 188 474 q 217 238 188 296 q 296 145 246 179 q 406 111 346 111 z "},"ð":{"ha":851,"x_min":49,"x_max":808,"o":"m 413 -14 q 229 37 313 -14 q 97 174 146 88 q 49 365 49 261 q 95 550 49 467 q 221 681 142 633 q 397 729 300 729 q 489 719 440 729 q 568 694 538 710 l 568 813 l 461 813 l 433 896 l 540 896 l 518 965 l 657 965 l 679 896 l 781 896 l 808 813 l 707 813 l 707 0 l 568 0 l 568 14 q 496 -6 539 1 q 413 -14 453 -14 m 406 111 q 523 128 478 111 q 568 172 568 144 l 568 532 q 522 583 568 561 q 415 604 476 604 q 251 539 314 604 q 188 367 188 474 q 217 238 188 296 q 296 145 246 179 q 406 111 346 111 z "},"ď":{"ha":921,"x_min":49,"x_max":878,"o":"m 767 1021 l 878 1021 l 836 785 l 808 785 l 767 1021 m 413 -14 q 229 37 313 -14 q 97 174 146 88 q 49 365 49 261 q 95 550 49 467 q 221 681 142 633 q 397 729 300 729 q 489 719 440 729 q 568 694 538 710 l 568 965 l 707 965 l 707 0 l 568 0 l 568 14 q 496 -6 539 1 q 413 -14 453 -14 m 406 111 q 523 128 478 111 q 568 172 568 144 l 568 532 q 522 583 568 561 q 415 604 476 604 q 251 539 314 604 q 188 367 188 474 q 217 238 188 296 q 296 145 246 179 q 406 111 346 111 z "},"đ":{"ha":851,"x_min":49,"x_max":808,"o":"m 808 813 l 707 813 l 707 0 l 568 0 l 568 14 q 496 -6 539 1 q 413 -14 453 -14 q 229 37 313 -14 q 97 174 146 88 q 49 365 49 261 q 95 550 49 467 q 221 681 142 633 q 397 729 300 729 q 489 719 440 729 q 568 694 538 710 l 568 813 l 461 813 l 461 896 l 568 896 l 568 965 l 707 965 l 707 896 l 808 896 l 808 813 m 568 532 q 522 583 568 561 q 415 604 476 604 q 251 539 314 604 q 188 367 188 474 q 217 238 188 296 q 296 145 246 179 q 406 111 346 111 q 523 128 478 111 q 568 172 568 144 l 568 532 z "},"e":{"ha":810,"x_min":49,"x_max":767,"o":"m 432 -14 q 233 33 319 -14 q 97 164 146 81 q 49 354 49 247 q 97 547 49 461 q 227 681 144 632 q 411 729 310 729 q 624 669 525 729 q 767 510 722 608 l 222 232 q 306 142 253 174 q 429 111 360 111 q 544 142 496 111 q 638 246 593 174 l 738 149 q 600 24 672 63 q 432 -14 528 -14 m 579 540 q 512 584 558 564 q 433 604 465 604 q 253 534 318 604 q 188 339 188 464 l 579 540 z "},"é":{"ha":782,"x_min":21,"x_max":739,"o":"m 386 1060 l 525 1060 l 314 813 l 231 813 l 386 1060 m 404 -14 q 205 33 292 -14 q 69 164 118 81 q 21 354 21 247 q 69 547 21 461 q 199 681 117 632 q 383 729 282 729 q 596 669 497 729 q 739 510 694 608 l 194 232 q 278 142 225 174 q 401 111 332 111 q 517 142 468 111 q 610 246 565 174 l 710 149 q 572 24 644 63 q 404 -14 500 -14 m 551 540 q 484 584 531 564 q 406 604 438 604 q 225 534 290 604 q 160 339 160 464 l 551 540 z "},"ě":{"ha":810,"x_min":49,"x_max":767,"o":"m 432 -14 q 233 33 319 -14 q 97 164 146 81 q 49 354 49 247 q 97 547 49 461 q 227 681 144 632 q 411 729 310 729 q 624 669 525 729 q 767 510 722 608 l 222 232 q 306 142 253 174 q 429 111 360 111 q 544 142 496 111 q 638 246 593 174 l 738 149 q 600 24 672 63 q 432 -14 528 -14 m 579 540 q 512 584 558 564 q 433 604 465 604 q 253 534 318 604 q 188 339 188 464 l 579 540 m 406 799 q 200 1046 315 951 l 263 1118 l 406 944 l 549 1118 l 611 1046 q 406 799 486 958 z "},"ê":{"ha":810,"x_min":49,"x_max":767,"o":"m 200 871 q 406 1118 315 965 q 611 871 486 958 l 549 799 l 406 972 l 263 799 l 200 871 m 432 -14 q 233 33 319 -14 q 97 164 146 81 q 49 354 49 247 q 97 547 49 461 q 227 681 144 632 q 411 729 310 729 q 624 669 525 729 q 767 510 722 608 l 222 232 q 306 142 253 174 q 429 111 360 111 q 544 142 496 111 q 638 246 593 174 l 738 149 q 600 24 672 63 q 432 -14 528 -14 m 579 540 q 512 584 558 564 q 433 604 465 604 q 253 534 318 604 q 188 339 188 464 l 579 540 z "},"ë":{"ha":810,"x_min":49,"x_max":767,"o":"m 432 -14 q 233 33 319 -14 q 97 164 146 81 q 49 354 49 247 q 97 547 49 461 q 227 681 144 632 q 411 729 310 729 q 624 669 525 729 q 767 510 722 608 l 222 232 q 306 142 253 174 q 429 111 360 111 q 544 142 496 111 q 638 246 593 174 l 738 149 q 600 24 672 63 q 432 -14 528 -14 m 579 540 q 512 584 558 564 q 433 604 465 604 q 253 534 318 604 q 188 339 188 464 l 579 540 m 232 924 l 371 924 l 371 799 l 232 799 l 232 924 m 440 924 l 579 924 l 579 799 l 440 799 l 440 924 z "},"ė":{"ha":810,"x_min":49,"x_max":767,"o":"m 432 -14 q 233 33 319 -14 q 97 164 146 81 q 49 354 49 247 q 97 547 49 461 q 227 681 144 632 q 411 729 310 729 q 624 669 525 729 q 767 510 722 608 l 222 232 q 306 142 253 174 q 429 111 360 111 q 544 142 496 111 q 638 246 593 174 l 738 149 q 600 24 672 63 q 432 -14 528 -14 m 579 540 q 512 584 558 564 q 433 604 465 604 q 253 534 318 604 q 188 339 188 464 l 579 540 m 336 924 l 475 924 l 475 799 l 336 799 l 336 924 z "},"è":{"ha":810,"x_min":49,"x_max":767,"o":"m 258 1060 l 397 1060 l 553 813 l 469 813 l 258 1060 m 432 -14 q 233 33 319 -14 q 97 164 146 81 q 49 354 49 247 q 97 547 49 461 q 227 681 144 632 q 411 729 310 729 q 624 669 525 729 q 767 510 722 608 l 222 232 q 306 142 253 174 q 429 111 360 111 q 544 142 496 111 q 638 246 593 174 l 738 149 q 600 24 672 63 q 432 -14 528 -14 m 579 540 q 512 584 558 564 q 433 604 465 604 q 253 534 318 604 q 188 339 188 464 l 579 540 z "},"ē":{"ha":810,"x_min":49,"x_max":767,"o":"m 432 -14 q 233 33 319 -14 q 97 164 146 81 q 49 354 49 247 q 97 547 49 461 q 227 681 144 632 q 411 729 310 729 q 624 669 525 729 q 767 510 722 608 l 222 232 q 306 142 253 174 q 429 111 360 111 q 544 142 496 111 q 638 246 593 174 l 738 149 q 600 24 672 63 q 432 -14 528 -14 m 579 540 q 512 584 558 564 q 433 604 465 604 q 253 534 318 604 q 188 339 188 464 l 579 540 m 232 896 l 579 896 l 579 813 l 232 813 l 232 896 z "},"ę":{"ha":810,"x_min":49,"x_max":767,"o":"m 429 111 q 544 142 496 111 q 638 246 593 174 l 738 149 q 637 47 689 85 q 524 -4 585 10 q 492 -54 501 -25 q 482 -107 482 -83 q 499 -150 482 -136 q 556 -164 517 -164 q 582 -158 574 -164 l 590 -169 q 519 -204 560 -192 q 438 -217 478 -217 q 390 -194 410 -217 q 371 -139 371 -171 q 386 -70 371 -104 q 432 -14 401 -36 q 233 33 319 -14 q 97 164 146 81 q 49 354 49 247 q 97 547 49 461 q 227 681 144 632 q 411 729 310 729 q 624 669 525 729 q 767 510 722 608 l 222 232 q 306 142 253 174 q 429 111 360 111 m 433 604 q 253 534 318 604 q 188 339 188 464 l 579 540 q 512 584 558 564 q 433 604 465 604 z "},"f":{"ha":390,"x_min":49,"x_max":347,"o":"m 49 590 l 49 715 l 97 715 l 97 826 q 110 922 97 892 q 174 951 124 951 l 319 951 l 319 826 q 254 820 272 826 q 236 792 236 814 l 236 715 l 347 715 l 347 590 l 236 590 l 236 0 l 97 0 l 97 590 l 49 590 z "},"g":{"ha":750,"x_min":49,"x_max":707,"o":"m 486 -153 q 543 -123 518 -153 q 568 -56 568 -93 l 568 15 q 511 -8 539 -1 q 444 -14 483 -14 q 239 32 329 -14 q 99 160 149 78 q 49 349 49 243 q 97 541 49 454 q 229 678 146 628 q 414 729 313 729 q 497 721 456 729 q 568 697 539 713 l 568 715 l 707 715 l 707 -86 q 680 -172 707 -126 q 613 -247 653 -217 q 538 -278 572 -278 l 154 -278 l 154 -153 l 486 -153 m 404 111 q 472 121 433 111 q 540 143 511 131 q 568 165 568 156 l 568 550 q 511 584 568 564 q 417 604 454 604 q 301 572 354 604 q 218 483 249 539 q 188 361 188 428 q 218 238 188 296 q 299 146 249 181 q 404 111 349 111 z "},"ğ":{"ha":750,"x_min":49,"x_max":707,"o":"m 486 -153 q 543 -123 518 -153 q 568 -56 568 -93 l 568 15 q 511 -8 539 -1 q 444 -14 483 -14 q 239 32 329 -14 q 99 160 149 78 q 49 349 49 243 q 97 541 49 454 q 229 678 146 628 q 414 729 313 729 q 497 721 456 729 q 568 697 539 713 l 568 715 l 707 715 l 707 -86 q 680 -172 707 -126 q 613 -247 653 -217 q 538 -278 572 -278 l 154 -278 l 154 -153 l 486 -153 m 404 111 q 472 121 433 111 q 540 143 511 131 q 568 165 568 156 l 568 550 q 511 584 568 564 q 417 604 454 604 q 301 572 354 604 q 218 483 249 539 q 188 361 188 428 q 218 238 188 296 q 299 146 249 181 q 404 111 349 111 m 375 813 q 290 836 331 813 q 226 901 250 860 q 201 992 201 942 q 281 934 235 958 q 369 910 326 910 q 463 935 408 910 q 549 992 518 961 q 524 901 549 942 q 460 836 500 860 q 375 813 419 813 z "},"ģ":{"ha":750,"x_min":49,"x_max":707,"o":"m 486 -153 q 543 -123 518 -153 q 568 -56 568 -93 l 568 15 q 511 -8 539 -1 q 444 -14 483 -14 q 239 32 329 -14 q 99 160 149 78 q 49 349 49 243 q 97 541 49 454 q 229 678 146 628 q 414 729 313 729 q 497 721 456 729 q 568 697 539 713 l 568 715 l 707 715 l 707 -86 q 680 -172 707 -126 q 613 -247 653 -217 q 538 -278 572 -278 l 154 -278 l 154 -153 l 486 -153 m 404 111 q 472 121 433 111 q 540 143 511 131 q 568 165 568 156 l 568 550 q 511 584 568 564 q 417 604 454 604 q 301 572 354 604 q 218 483 249 539 q 188 361 188 428 q 218 238 188 296 q 299 146 249 181 q 404 111 349 111 m 335 924 q 350 999 335 960 q 388 1065 365 1039 q 432 1090 410 1090 q 396 969 396 1021 q 404 924 396 944 l 472 924 l 472 799 l 333 799 l 333 924 l 335 924 z "},"ġ":{"ha":750,"x_min":49,"x_max":707,"o":"m 486 -153 q 543 -123 518 -153 q 568 -56 568 -93 l 568 15 q 511 -8 539 -1 q 444 -14 483 -14 q 239 32 329 -14 q 99 160 149 78 q 49 349 49 243 q 97 541 49 454 q 229 678 146 628 q 414 729 313 729 q 497 721 456 729 q 568 697 539 713 l 568 715 l 707 715 l 707 -86 q 680 -172 707 -126 q 613 -247 653 -217 q 538 -278 572 -278 l 154 -278 l 154 -153 l 486 -153 m 404 111 q 472 121 433 111 q 540 143 511 131 q 568 165 568 156 l 568 550 q 511 584 568 564 q 417 604 454 604 q 301 572 354 604 q 218 483 249 539 q 188 361 188 428 q 218 238 188 296 q 299 146 249 181 q 404 111 349 111 m 347 924 l 486 924 l 486 799 l 347 799 l 347 924 z "},"h":{"ha":661,"x_min":49,"x_max":618,"o":"m 188 951 l 188 661 q 266 713 229 697 q 349 729 303 729 q 487 691 425 729 q 583 586 549 653 q 618 436 618 519 l 618 0 l 479 0 l 479 408 q 433 539 479 489 q 315 589 388 589 q 217 539 247 589 q 188 376 188 489 l 188 0 l 49 0 l 49 951 l 188 951 z "},"ħ":{"ha":765,"x_min":49,"x_max":722,"o":"m 453 729 q 591 691 529 729 q 688 586 653 653 q 722 436 722 519 l 722 0 l 583 0 l 583 408 q 538 539 583 489 q 419 589 492 589 q 322 539 351 589 q 292 376 292 489 l 292 0 l 153 0 l 153 813 l 49 813 l 49 896 l 153 896 l 153 951 l 292 951 l 292 896 l 396 896 l 396 813 l 292 813 l 292 661 q 370 713 333 697 q 453 729 407 729 z "},"i":{"ha":231,"x_min":46,"x_max":188,"o":"m 49 715 l 188 715 l 188 0 l 49 0 l 49 715 m 46 924 l 185 924 l 185 799 l 46 799 l 46 924 z "},"ı":{"ha":231,"x_min":49,"x_max":188,"o":"m 49 715 l 188 715 l 188 0 l 49 0 l 49 715 z "},"í":{"ha":403,"x_min":63,"x_max":360,"o":"m 221 1060 l 360 1060 l 149 813 l 65 813 l 221 1060 m 63 715 l 201 715 l 201 0 l 63 0 l 63 715 z "},"î":{"ha":471,"x_min":17,"x_max":428,"o":"m 17 871 q 222 1118 132 965 q 428 871 303 958 l 365 799 l 222 972 l 79 799 l 17 871 m 156 715 l 294 715 l 294 0 l 156 0 l 156 715 z "},"ï":{"ha":407,"x_min":17,"x_max":364,"o":"m 17 924 l 156 924 l 156 799 l 17 799 l 17 924 m 225 924 l 364 924 l 364 799 l 225 799 l 225 924 m 124 715 l 263 715 l 263 0 l 124 0 l 124 715 z "},"ì":{"ha":367,"x_min":7,"x_max":324,"o":"m 7 1060 l 146 1060 l 301 813 l 218 813 l 7 1060 m 185 715 l 324 715 l 324 0 l 185 0 l 185 715 z "},"ī":{"ha":231,"x_min":-58,"x_max":289,"o":"m 49 715 l 188 715 l 188 0 l 49 0 l 49 715 m -58 896 l 289 896 l 289 813 l -58 813 l -58 896 z "},"į":{"ha":231,"x_min":8,"x_max":228,"o":"m 185 924 l 185 799 l 46 799 l 46 924 l 185 924 m 228 -169 q 156 -204 197 -192 q 75 -217 115 -217 q 28 -194 47 -217 q 8 -139 8 -171 q 30 -60 8 -99 q 92 0 51 -21 l 49 0 l 49 715 l 188 715 l 188 0 l 165 0 q 130 -51 140 -21 q 119 -107 119 -81 q 137 -150 119 -136 q 193 -164 154 -164 q 219 -158 211 -164 l 228 -169 z "},"j":{"ha":328,"x_min":49,"x_max":288,"o":"m 49 -49 q 122 -42 99 -49 q 146 -14 146 -36 l 146 715 l 285 715 l 285 -49 q 272 -144 285 -114 q 208 -174 258 -174 l 49 -174 l 49 -49 m 149 924 l 288 924 l 288 799 l 149 799 l 149 924 z "},"ȷ":{"ha":328,"x_min":49,"x_max":285,"o":"m 49 -49 q 122 -42 99 -49 q 146 -14 146 -36 l 146 715 l 285 715 l 285 -49 q 272 -144 285 -114 q 208 -174 258 -174 l 49 -174 l 49 -49 z "},"k":{"ha":713,"x_min":49,"x_max":669,"o":"m 188 924 l 188 361 q 402 549 314 458 q 531 715 490 640 l 669 715 q 607 602 643 649 q 519 501 571 556 q 467 443 485 467 q 582 216 551 296 q 636 0 613 136 l 497 0 q 449 211 478 132 q 363 365 419 290 l 188 218 l 188 0 l 49 0 l 49 924 l 188 924 z "},"ķ":{"ha":713,"x_min":49,"x_max":669,"o":"m 188 924 l 188 361 q 402 549 314 458 q 531 715 490 640 l 669 715 q 607 602 643 649 q 519 501 571 556 q 467 443 485 467 q 582 216 551 296 q 636 0 613 136 l 497 0 q 449 211 478 132 q 363 365 419 290 l 188 218 l 188 0 l 49 0 l 49 924 l 188 924 m 328 -389 q 364 -268 364 -319 q 356 -222 364 -243 l 288 -222 l 288 -97 l 426 -97 l 426 -222 l 425 -222 q 410 -298 425 -258 q 372 -363 394 -337 q 328 -389 350 -389 z "},"l":{"ha":300,"x_min":49,"x_max":257,"o":"m 49 951 l 188 951 l 188 125 l 257 125 l 257 0 l 49 0 l 49 951 z "},"ĺ":{"ha":410,"x_min":49,"x_max":367,"o":"m 228 1317 l 367 1317 l 156 1069 l 72 1069 l 228 1317 m 49 951 l 188 951 l 188 125 l 257 125 l 257 0 l 49 0 l 49 951 z "},"ľ":{"ha":400,"x_min":49,"x_max":357,"o":"m 246 1021 l 357 1021 l 315 785 l 288 785 l 246 1021 m 49 951 l 188 951 l 188 125 l 257 125 l 257 0 l 49 0 l 49 951 z "},"ļ":{"ha":300,"x_min":49,"x_max":257,"o":"m 49 951 l 188 951 l 188 125 l 257 125 l 257 0 l 49 0 l 49 951 m 121 -389 q 157 -268 157 -319 q 149 -222 157 -243 l 81 -222 l 81 -97 l 219 -97 l 219 -222 l 218 -222 q 203 -298 218 -258 q 165 -363 188 -337 q 121 -389 143 -389 z "},"ł":{"ha":581,"x_min":49,"x_max":538,"o":"m 360 499 l 360 125 l 429 125 l 429 0 l 221 0 l 221 326 l 188 285 l 49 285 l 221 499 l 221 951 l 360 951 l 360 671 l 399 719 l 538 719 l 360 499 z "},"m":{"ha":1092,"x_min":49,"x_max":1049,"o":"m 188 715 l 188 661 q 266 713 229 697 q 349 729 303 729 q 467 702 414 729 q 569 615 521 675 q 650 701 599 674 q 779 729 701 729 q 917 691 856 729 q 1014 586 979 653 q 1049 436 1049 519 l 1049 0 l 910 0 l 910 408 q 864 539 910 489 q 746 589 818 589 q 648 539 678 589 q 618 376 618 489 l 618 0 l 479 0 l 479 408 q 433 539 479 489 q 315 589 388 589 q 217 539 247 589 q 188 376 188 489 l 188 0 l 49 0 l 49 715 l 188 715 z "},"n":{"ha":661,"x_min":49,"x_max":618,"o":"m 188 715 l 188 661 q 266 713 229 697 q 349 729 303 729 q 487 691 425 729 q 583 586 549 653 q 618 436 618 519 l 618 0 l 479 0 l 479 408 q 433 539 479 489 q 315 589 388 589 q 217 539 247 589 q 188 376 188 489 l 188 0 l 49 0 l 49 715 l 188 715 z "},"ń":{"ha":661,"x_min":49,"x_max":618,"o":"m 188 715 l 188 661 q 266 713 229 697 q 349 729 303 729 q 487 691 425 729 q 583 586 549 653 q 618 436 618 519 l 618 0 l 479 0 l 479 408 q 433 539 479 489 q 315 589 388 589 q 217 539 247 589 q 188 376 188 489 l 188 0 l 49 0 l 49 715 l 188 715 m 242 1060 l 381 1060 l 169 813 l 86 813 l 242 1060 z "},"ň":{"ha":661,"x_min":49,"x_max":618,"o":"m 188 715 l 188 661 q 266 713 229 697 q 349 729 303 729 q 487 691 425 729 q 583 586 549 653 q 618 436 618 519 l 618 0 l 479 0 l 479 408 q 433 539 479 489 q 315 589 388 589 q 217 539 247 589 q 188 376 188 489 l 188 0 l 49 0 l 49 715 l 188 715 m 331 799 q 125 1046 240 951 l 188 1118 l 331 944 l 474 1118 l 536 1046 q 331 799 411 958 z "},"ņ":{"ha":661,"x_min":49,"x_max":618,"o":"m 188 715 l 188 661 q 266 713 229 697 q 349 729 303 729 q 487 691 425 729 q 583 586 549 653 q 618 436 618 519 l 618 0 l 479 0 l 479 408 q 433 539 479 489 q 315 589 388 589 q 217 539 247 589 q 188 376 188 489 l 188 0 l 49 0 l 49 715 l 188 715 m 301 -389 q 338 -268 338 -319 q 329 -222 338 -243 l 261 -222 l 261 -97 l 400 -97 l 400 -222 l 399 -222 q 383 -298 399 -258 q 346 -363 368 -337 q 301 -389 324 -389 z "},"ŋ":{"ha":688,"x_min":49,"x_max":644,"o":"m 396 -49 q 469 -42 446 -49 q 493 -14 493 -36 l 493 0 l 492 0 l 492 408 q 339 589 492 589 q 232 540 264 589 q 200 376 200 492 l 200 0 l 49 0 l 49 715 l 200 715 l 200 661 q 278 714 242 699 q 358 729 314 729 q 502 690 436 729 q 606 583 568 650 q 644 436 644 515 l 644 -49 q 640 -118 644 -93 q 620 -158 636 -143 q 569 -174 604 -174 l 396 -174 l 396 -49 z "},"ñ":{"ha":661,"x_min":49,"x_max":618,"o":"m 188 715 l 188 661 q 266 713 229 697 q 349 729 303 729 q 487 691 425 729 q 583 586 549 653 q 618 436 618 519 l 618 0 l 479 0 l 479 408 q 433 539 479 489 q 315 589 388 589 q 217 539 247 589 q 188 376 188 489 l 188 0 l 49 0 l 49 715 l 188 715 m 76 811 q 127 934 76 885 q 253 983 178 983 q 301 975 278 983 q 361 946 325 967 q 410 921 390 928 q 449 914 429 914 q 526 938 492 914 q 561 993 561 963 l 585 993 q 531 853 585 908 q 393 799 476 799 q 332 810 358 799 q 276 851 306 822 q 244 878 257 871 q 213 885 231 885 q 135 858 169 885 q 100 799 100 831 l 76 799 l 76 811 z "},"o":{"ha":844,"x_min":49,"x_max":801,"o":"m 421 -14 q 231 35 317 -14 q 97 169 146 83 q 49 358 49 254 q 97 547 49 463 q 230 681 146 632 q 417 729 314 729 q 610 679 522 729 q 750 543 699 629 q 801 354 801 457 q 751 169 801 253 q 613 35 700 85 q 421 -14 525 -14 m 421 111 q 540 145 485 111 q 629 235 596 179 q 663 357 663 292 q 628 479 663 422 q 539 570 594 536 q 419 604 483 604 q 303 571 357 604 q 219 481 250 538 q 188 357 188 424 q 219 234 188 290 q 305 144 251 178 q 421 111 358 111 z "},"ó":{"ha":844,"x_min":49,"x_max":801,"o":"m 421 -14 q 231 35 317 -14 q 97 169 146 83 q 49 358 49 254 q 97 547 49 463 q 230 681 146 632 q 417 729 314 729 q 610 679 522 729 q 750 543 699 629 q 801 354 801 457 q 751 169 801 253 q 613 35 700 85 q 421 -14 525 -14 m 421 111 q 540 145 485 111 q 629 235 596 179 q 663 357 663 292 q 628 479 663 422 q 539 570 594 536 q 419 604 483 604 q 303 571 357 604 q 219 481 250 538 q 188 357 188 424 q 219 234 188 290 q 305 144 251 178 q 421 111 358 111 m 431 1060 l 569 1060 l 358 813 l 275 813 l 431 1060 z "},"ô":{"ha":844,"x_min":49,"x_max":801,"o":"m 421 -14 q 231 35 317 -14 q 97 169 146 83 q 49 358 49 254 q 97 547 49 463 q 230 681 146 632 q 417 729 314 729 q 610 679 522 729 q 750 543 699 629 q 801 354 801 457 q 751 169 801 253 q 613 35 700 85 q 421 -14 525 -14 m 421 111 q 540 145 485 111 q 629 235 596 179 q 663 357 663 292 q 628 479 663 422 q 539 570 594 536 q 419 604 483 604 q 303 571 357 604 q 219 481 250 538 q 188 357 188 424 q 219 234 188 290 q 305 144 251 178 q 421 111 358 111 m 217 871 q 422 1118 332 965 q 628 871 503 958 l 565 799 l 422 972 l 279 799 l 217 871 z "},"ö":{"ha":844,"x_min":49,"x_max":801,"o":"m 421 -14 q 231 35 317 -14 q 97 169 146 83 q 49 358 49 254 q 97 547 49 463 q 230 681 146 632 q 417 729 314 729 q 610 679 522 729 q 750 543 699 629 q 801 354 801 457 q 751 169 801 253 q 613 35 700 85 q 421 -14 525 -14 m 421 111 q 540 145 485 111 q 629 235 596 179 q 663 357 663 292 q 628 479 663 422 q 539 570 594 536 q 419 604 483 604 q 303 571 357 604 q 219 481 250 538 q 188 357 188 424 q 219 234 188 290 q 305 144 251 178 q 421 111 358 111 m 249 924 l 388 924 l 388 799 l 249 799 l 249 924 m 457 924 l 596 924 l 596 799 l 457 799 l 457 924 z "},"ò":{"ha":844,"x_min":49,"x_max":801,"o":"m 421 -14 q 231 35 317 -14 q 97 169 146 83 q 49 358 49 254 q 97 547 49 463 q 230 681 146 632 q 417 729 314 729 q 610 679 522 729 q 750 543 699 629 q 801 354 801 457 q 751 169 801 253 q 613 35 700 85 q 421 -14 525 -14 m 421 111 q 540 145 485 111 q 629 235 596 179 q 663 357 663 292 q 628 479 663 422 q 539 570 594 536 q 419 604 483 604 q 303 571 357 604 q 219 481 250 538 q 188 357 188 424 q 219 234 188 290 q 305 144 251 178 q 421 111 358 111 m 275 1060 l 414 1060 l 569 813 l 486 813 l 275 1060 z "},"ő":{"ha":844,"x_min":49,"x_max":801,"o":"m 421 -14 q 231 35 317 -14 q 97 169 146 83 q 49 358 49 254 q 97 547 49 463 q 230 681 146 632 q 417 729 314 729 q 610 679 522 729 q 750 543 699 629 q 801 354 801 457 q 751 169 801 253 q 613 35 700 85 q 421 -14 525 -14 m 421 111 q 540 145 485 111 q 629 235 596 179 q 663 357 663 292 q 628 479 663 422 q 539 570 594 536 q 419 604 483 604 q 303 571 357 604 q 219 481 250 538 q 188 357 188 424 q 219 234 188 290 q 305 144 251 178 q 421 111 358 111 m 410 1060 l 549 1060 l 338 813 l 254 813 l 410 1060 m 590 1060 l 729 1060 l 518 813 l 435 813 l 590 1060 z "},"ō":{"ha":844,"x_min":49,"x_max":801,"o":"m 421 -14 q 231 35 317 -14 q 97 169 146 83 q 49 358 49 254 q 97 547 49 463 q 230 681 146 632 q 417 729 314 729 q 610 679 522 729 q 750 543 699 629 q 801 354 801 457 q 751 169 801 253 q 613 35 700 85 q 421 -14 525 -14 m 421 111 q 540 145 485 111 q 629 235 596 179 q 663 357 663 292 q 628 479 663 422 q 539 570 594 536 q 419 604 483 604 q 303 571 357 604 q 219 481 250 538 q 188 357 188 424 q 219 234 188 290 q 305 144 251 178 q 421 111 358 111 m 249 896 l 596 896 l 596 813 l 249 813 l 249 896 z "},"ø":{"ha":844,"x_min":49,"x_max":801,"o":"m 421 -14 q 234 35 319 -14 q 99 170 149 85 q 49 360 49 256 q 97 547 49 463 q 228 681 144 632 q 414 729 313 729 q 608 678 519 729 q 749 541 697 628 q 801 351 801 454 q 751 167 801 251 q 613 35 700 83 q 421 -14 526 -14 m 475 596 q 415 604 446 604 q 302 570 354 604 q 219 478 250 536 q 188 354 188 421 q 208 253 188 301 q 264 172 228 206 l 475 596 m 413 111 q 534 147 476 111 q 627 239 592 182 q 663 360 663 296 q 635 465 663 414 q 561 551 607 517 l 347 122 q 413 111 381 111 z "},"õ":{"ha":844,"x_min":49,"x_max":801,"o":"m 421 -14 q 231 35 317 -14 q 97 169 146 83 q 49 358 49 254 q 97 547 49 463 q 230 681 146 632 q 417 729 314 729 q 610 679 522 729 q 750 543 699 629 q 801 354 801 457 q 751 169 801 253 q 613 35 700 85 q 421 -14 525 -14 m 421 111 q 540 145 485 111 q 629 235 596 179 q 663 357 663 292 q 628 479 663 422 q 539 570 594 536 q 419 604 483 604 q 303 571 357 604 q 219 481 250 538 q 188 357 188 424 q 219 234 188 290 q 305 144 251 178 q 421 111 358 111 m 168 811 q 219 934 168 885 q 344 983 269 983 q 393 975 369 983 q 453 946 417 967 q 501 921 482 928 q 540 914 521 914 q 618 938 583 914 q 653 993 653 963 l 676 993 q 622 853 676 908 q 485 799 568 799 q 424 810 450 799 q 368 851 397 822 q 335 878 349 871 q 304 885 322 885 q 226 858 261 885 q 192 799 192 831 l 168 799 l 168 811 z "},"œ":{"ha":1424,"x_min":49,"x_max":1381,"o":"m 421 -14 q 231 35 317 -14 q 97 170 146 85 q 49 360 49 256 q 97 547 49 463 q 228 681 144 632 q 414 729 313 729 q 592 687 510 729 q 729 572 675 644 q 858 687 779 644 q 1029 729 938 729 q 1238 668 1140 729 q 1381 510 1336 607 l 836 232 q 919 142 867 174 q 1043 111 972 111 q 1160 142 1110 111 q 1254 246 1210 174 l 1356 147 q 1218 25 1292 64 q 1046 -14 1144 -14 q 860 26 942 -14 q 731 136 779 65 q 597 26 678 67 q 421 -14 517 -14 m 413 111 q 534 147 476 111 q 627 239 592 182 q 663 360 663 296 q 628 478 663 422 q 535 569 593 535 q 415 604 478 604 q 302 570 354 604 q 219 478 250 536 q 188 354 188 421 q 218 233 188 289 q 300 144 249 176 q 413 111 351 111 m 1186 536 q 1121 583 1164 561 q 1047 604 1078 604 q 863 543 925 604 q 801 339 801 482 l 1186 536 z "},"p":{"ha":703,"x_min":49,"x_max":660,"o":"m 393 715 q 592 647 524 715 q 660 456 660 578 q 588 249 660 346 q 417 77 517 151 q 188 -75 318 3 l 188 -236 l 49 -236 l 49 715 l 393 715 m 188 65 q 353 180 286 128 q 471 301 421 232 q 521 449 521 371 q 485 553 521 517 q 382 590 450 590 l 188 590 l 188 65 z "},"þ":{"ha":668,"x_min":49,"x_max":625,"o":"m 188 951 l 188 854 l 324 854 q 476 819 407 854 q 585 726 544 785 q 625 594 625 667 q 592 463 625 517 q 470 347 560 408 q 188 181 381 285 l 188 -417 l 49 -417 l 49 951 l 188 951 m 190 325 q 414 483 342 415 q 486 601 486 550 q 436 682 486 649 q 313 715 386 715 l 190 715 l 190 325 z "},"q":{"ha":750,"x_min":49,"x_max":707,"o":"m 568 21 q 489 -4 538 6 q 397 -14 440 -14 q 221 34 300 -14 q 95 165 142 82 q 49 350 49 249 q 97 541 49 454 q 229 678 146 628 q 413 729 313 729 q 496 722 453 729 q 568 701 539 714 l 568 715 l 707 715 l 707 -250 l 568 -250 l 568 21 m 415 111 q 522 133 476 111 q 568 183 568 154 l 568 543 q 523 588 568 571 q 406 604 478 604 q 296 570 346 604 q 217 478 246 536 q 188 349 188 419 q 251 176 188 242 q 415 111 314 111 z "},"r":{"ha":481,"x_min":90,"x_max":438,"o":"m 229 715 l 229 599 q 303 701 257 672 q 438 729 349 729 l 438 590 q 283 542 336 590 q 229 399 229 493 l 229 0 l 90 0 l 90 715 l 229 715 z "},"ŕ":{"ha":481,"x_min":90,"x_max":438,"o":"m 229 715 l 229 599 q 303 701 257 672 q 438 729 349 729 l 438 590 q 283 542 336 590 q 229 399 229 493 l 229 0 l 90 0 l 90 715 l 229 715 m 249 1060 l 388 1060 l 176 813 l 93 813 l 249 1060 z "},"ř":{"ha":481,"x_min":35,"x_max":446,"o":"m 229 715 l 229 599 q 303 701 257 672 q 438 729 349 729 l 438 590 q 283 542 336 590 q 229 399 229 493 l 229 0 l 90 0 l 90 715 l 229 715 m 240 799 q 35 1046 150 951 l 97 1118 l 240 944 l 383 1118 l 446 1046 q 240 799 321 958 z "},"ŗ":{"ha":481,"x_min":60,"x_max":438,"o":"m 229 715 l 229 599 q 303 701 257 672 q 438 729 349 729 l 438 590 q 283 542 336 590 q 229 399 229 493 l 229 0 l 90 0 l 90 715 l 229 715 m 100 -389 q 136 -268 136 -319 q 128 -222 136 -243 l 60 -222 l 60 -97 l 199 -97 l 199 -222 l 197 -222 q 182 -298 197 -258 q 144 -363 167 -337 q 100 -389 122 -389 z "},"s":{"ha":588,"x_min":49,"x_max":544,"o":"m 382 108 q 401 122 393 108 q 408 154 408 136 q 374 237 408 189 q 261 363 340 285 q 137 501 174 447 q 100 601 100 556 q 136 691 100 653 q 221 729 172 729 l 532 729 l 532 607 l 249 607 q 236 605 242 607 q 231 601 231 603 q 321 499 231 589 q 494 296 444 375 q 544 144 544 217 q 499 28 544 69 q 372 -14 454 -14 l 49 -14 l 49 108 l 382 108 z "},"ś":{"ha":588,"x_min":49,"x_max":544,"o":"m 382 108 q 401 122 393 108 q 408 154 408 136 q 374 237 408 189 q 261 363 340 285 q 137 501 174 447 q 100 601 100 556 q 136 691 100 653 q 221 729 172 729 l 532 729 l 532 607 l 249 607 q 236 605 242 607 q 231 601 231 603 q 321 499 231 589 q 494 296 444 375 q 544 144 544 217 q 499 28 544 69 q 372 -14 454 -14 l 49 -14 l 49 108 l 382 108 m 331 1060 l 469 1060 l 258 813 l 175 813 l 331 1060 z "},"š":{"ha":588,"x_min":49,"x_max":544,"o":"m 382 108 q 401 122 393 108 q 408 154 408 136 q 374 237 408 189 q 261 363 340 285 q 137 501 174 447 q 100 601 100 556 q 136 691 100 653 q 221 729 172 729 l 532 729 l 532 607 l 249 607 q 236 605 242 607 q 231 601 231 603 q 321 499 231 589 q 494 296 444 375 q 544 144 544 217 q 499 28 544 69 q 372 -14 454 -14 l 49 -14 l 49 108 l 382 108 m 294 799 q 89 1046 204 951 l 151 1118 l 294 944 l 438 1118 l 500 1046 q 294 799 375 958 z "},"ş":{"ha":588,"x_min":49,"x_max":544,"o":"m 340 -14 l 313 -62 l 331 -62 q 412 -81 383 -62 q 440 -135 440 -100 q 409 -216 440 -186 q 331 -246 378 -246 q 232 -176 232 -246 l 282 -176 q 331 -199 307 -199 q 344 -187 339 -199 q 350 -162 350 -176 q 344 -128 350 -146 q 331 -110 339 -110 q 301 -115 319 -110 q 264 -135 282 -119 l 232 -119 l 286 -14 l 49 -14 l 49 108 l 382 108 q 401 122 393 108 q 408 154 408 136 q 374 237 408 189 q 261 363 340 285 q 137 501 174 447 q 100 601 100 556 q 136 691 100 653 q 221 729 172 729 l 532 729 l 532 607 l 249 607 q 236 605 242 607 q 231 601 231 603 q 321 499 231 589 q 494 296 444 375 q 544 144 544 217 q 499 28 544 69 q 372 -14 454 -14 l 340 -14 z "},"ș":{"ha":588,"x_min":49,"x_max":544,"o":"m 382 108 q 401 122 393 108 q 408 154 408 136 q 374 237 408 189 q 261 363 340 285 q 137 501 174 447 q 100 601 100 556 q 136 691 100 653 q 221 729 172 729 l 532 729 l 532 607 l 249 607 q 236 605 242 607 q 231 601 231 603 q 321 499 231 589 q 494 296 444 375 q 544 144 544 217 q 499 28 544 69 q 372 -14 454 -14 l 49 -14 l 49 108 l 382 108 m 265 -389 q 301 -268 301 -319 q 293 -222 301 -243 l 225 -222 l 225 -97 l 364 -97 l 364 -222 l 363 -222 q 347 -298 363 -258 q 310 -363 332 -337 q 265 -389 288 -389 z "},"ß":{"ha":808,"x_min":49,"x_max":765,"o":"m 49 590 l 49 715 l 97 715 l 97 826 q 113 925 97 899 q 174 951 129 951 l 713 951 l 713 828 l 599 594 q 730 472 694 526 q 765 342 765 418 q 711 159 765 236 q 555 41 657 82 q 314 0 453 0 l 314 138 q 467 163 399 138 q 574 233 535 189 q 613 332 613 278 q 565 432 613 393 q 444 471 518 471 l 403 522 l 549 826 l 319 826 q 253 819 269 826 q 236 792 236 813 l 236 0 l 97 0 l 97 590 l 49 590 z "},"t":{"ha":390,"x_min":49,"x_max":347,"o":"m 174 0 q 110 30 124 0 q 97 125 97 60 l 97 590 l 49 590 l 49 715 l 97 715 l 97 910 l 236 910 l 236 715 l 347 715 l 347 590 l 236 590 l 236 160 q 254 131 236 138 q 319 125 272 125 l 319 0 l 174 0 z "},"ŧ":{"ha":390,"x_min":49,"x_max":347,"o":"m 174 0 q 110 30 124 0 q 97 125 97 60 l 97 382 l 50 382 l 50 507 l 97 507 l 97 590 l 49 590 l 49 715 l 97 715 l 97 910 l 236 910 l 236 715 l 347 715 l 347 590 l 236 590 l 236 507 l 347 507 l 347 382 l 236 382 l 236 160 q 254 131 236 138 q 319 125 272 125 l 319 0 l 174 0 z "},"ť":{"ha":414,"x_min":49,"x_max":371,"o":"m 260 1021 l 371 1021 l 329 785 l 301 785 l 260 1021 m 174 0 q 110 30 124 0 q 97 125 97 60 l 97 590 l 49 590 l 49 715 l 97 715 l 97 910 l 236 910 l 236 715 l 347 715 l 347 590 l 236 590 l 236 160 q 254 131 236 138 q 319 125 272 125 l 319 0 l 174 0 z "},"ţ":{"ha":390,"x_min":49,"x_max":347,"o":"m 236 590 l 236 160 q 254 131 236 138 q 319 125 272 125 l 319 0 l 235 0 l 200 -62 l 218 -62 q 299 -81 271 -62 q 328 -135 328 -100 q 297 -216 328 -186 q 218 -246 265 -246 q 119 -176 119 -246 l 169 -176 q 218 -199 194 -199 q 232 -187 226 -199 q 238 -162 238 -176 q 232 -128 238 -146 q 218 -110 226 -110 q 188 -115 207 -110 q 151 -135 169 -119 l 119 -119 l 181 0 l 174 0 q 110 30 124 0 q 97 125 97 60 l 97 590 l 49 590 l 49 715 l 97 715 l 97 910 l 236 910 l 236 715 l 347 715 l 347 590 l 236 590 z "},"ț":{"ha":390,"x_min":49,"x_max":347,"o":"m 174 0 q 110 30 124 0 q 97 125 97 60 l 97 590 l 49 590 l 49 715 l 97 715 l 97 910 l 236 910 l 236 715 l 347 715 l 347 590 l 236 590 l 236 160 q 254 131 236 138 q 319 125 272 125 l 319 0 l 174 0 m 181 -389 q 217 -268 217 -319 q 208 -222 217 -243 l 140 -222 l 140 -97 l 279 -97 l 279 -222 l 278 -222 q 263 -298 278 -258 q 225 -363 247 -337 q 181 -389 203 -389 z "},"u":{"ha":683,"x_min":49,"x_max":640,"o":"m 481 0 q 226 28 319 0 q 90 118 132 57 q 49 282 49 179 l 49 715 l 188 715 l 188 253 q 216 176 188 203 q 311 137 244 149 q 501 125 378 125 l 501 715 l 640 715 l 640 0 l 481 0 z "},"ú":{"ha":683,"x_min":49,"x_max":640,"o":"m 481 0 q 226 28 319 0 q 90 118 132 57 q 49 282 49 179 l 49 715 l 188 715 l 188 253 q 216 176 188 203 q 311 137 244 149 q 501 125 378 125 l 501 715 l 640 715 l 640 0 l 481 0 m 406 1060 l 544 1060 l 333 813 l 250 813 l 406 1060 z "},"û":{"ha":683,"x_min":49,"x_max":640,"o":"m 481 0 q 226 28 319 0 q 90 118 132 57 q 49 282 49 179 l 49 715 l 188 715 l 188 253 q 216 176 188 203 q 311 137 244 149 q 501 125 378 125 l 501 715 l 640 715 l 640 0 l 481 0 m 136 871 q 342 1118 251 965 q 547 871 422 958 l 485 799 l 342 972 l 199 799 l 136 871 z "},"ü":{"ha":683,"x_min":49,"x_max":640,"o":"m 481 0 q 226 28 319 0 q 90 118 132 57 q 49 282 49 179 l 49 715 l 188 715 l 188 253 q 216 176 188 203 q 311 137 244 149 q 501 125 378 125 l 501 715 l 640 715 l 640 0 l 481 0 m 168 924 l 307 924 l 307 799 l 168 799 l 168 924 m 376 924 l 515 924 l 515 799 l 376 799 l 376 924 z "},"ù":{"ha":683,"x_min":49,"x_max":640,"o":"m 481 0 q 226 28 319 0 q 90 118 132 57 q 49 282 49 179 l 49 715 l 188 715 l 188 253 q 216 176 188 203 q 311 137 244 149 q 501 125 378 125 l 501 715 l 640 715 l 640 0 l 481 0 m 139 1060 l 278 1060 l 433 813 l 350 813 l 139 1060 z "},"ű":{"ha":683,"x_min":49,"x_max":640,"o":"m 481 0 q 226 28 319 0 q 90 118 132 57 q 49 282 49 179 l 49 715 l 188 715 l 188 253 q 216 176 188 203 q 311 137 244 149 q 501 125 378 125 l 501 715 l 640 715 l 640 0 l 481 0 m 315 1060 l 454 1060 l 243 813 l 160 813 l 315 1060 m 496 1060 l 635 1060 l 424 813 l 340 813 l 496 1060 z "},"ū":{"ha":683,"x_min":49,"x_max":640,"o":"m 481 0 q 226 28 319 0 q 90 118 132 57 q 49 282 49 179 l 49 715 l 188 715 l 188 253 q 216 176 188 203 q 311 137 244 149 q 501 125 378 125 l 501 715 l 640 715 l 640 0 l 481 0 m 168 896 l 515 896 l 515 813 l 168 813 l 168 896 z "},"ų":{"ha":683,"x_min":49,"x_max":640,"o":"m 553 0 q 517 -51 528 -21 q 507 -107 507 -81 q 524 -150 507 -136 q 581 -164 542 -164 q 607 -158 599 -164 l 615 -169 q 544 -204 585 -192 q 463 -217 503 -217 q 415 -194 435 -217 q 396 -139 396 -171 q 417 -60 396 -99 q 479 0 438 -21 q 225 28 318 0 q 90 118 132 57 q 49 282 49 179 l 49 715 l 188 715 l 188 253 q 216 176 188 203 q 311 137 244 149 q 501 125 378 125 l 501 715 l 640 715 l 640 0 l 553 0 z "},"ů":{"ha":683,"x_min":49,"x_max":640,"o":"m 481 0 q 226 28 319 0 q 90 118 132 57 q 49 282 49 179 l 49 715 l 188 715 l 188 253 q 216 176 188 203 q 311 137 244 149 q 501 125 378 125 l 501 715 l 640 715 l 640 0 l 481 0 m 342 799 q 253 833 290 799 q 217 917 217 868 q 253 1000 217 965 q 342 1035 290 1035 q 430 1000 393 1035 q 467 917 467 965 q 430 833 467 868 q 342 799 393 799 m 342 861 q 387 876 369 861 q 404 914 404 892 q 385 955 404 938 q 342 972 367 972 q 298 955 317 972 q 279 914 279 938 q 297 876 279 892 q 342 861 314 861 z "},"v":{"ha":735,"x_min":35,"x_max":692,"o":"m 296 0 q 158 299 218 136 q 35 715 99 461 l 174 715 q 358 160 314 281 q 553 714 468 458 l 692 714 q 570 319 633 486 q 421 0 507 151 l 296 0 z "},"w":{"ha":1024,"x_min":35,"x_max":981,"o":"m 296 0 q 158 299 217 136 q 35 715 99 463 l 174 715 q 358 160 313 285 l 428 353 q 324 715 376 503 l 463 715 q 647 160 601 285 q 842 714 744 421 l 981 714 q 858 317 921 483 q 710 0 794 151 l 585 0 q 503 161 533 90 q 421 0 479 106 l 296 0 z "},"ẃ":{"ha":1024,"x_min":35,"x_max":981,"o":"m 296 0 q 158 299 217 136 q 35 715 99 463 l 174 715 q 358 160 313 285 l 428 353 q 324 715 376 503 l 463 715 q 647 160 601 285 q 842 714 744 421 l 981 714 q 858 317 921 483 q 710 0 794 151 l 585 0 q 503 161 533 90 q 421 0 479 106 l 296 0 m 521 1060 l 660 1060 l 449 813 l 365 813 l 521 1060 z "},"ŵ":{"ha":1024,"x_min":35,"x_max":981,"o":"m 296 0 q 158 299 217 136 q 35 715 99 463 l 174 715 q 358 160 313 285 l 428 353 q 324 715 376 503 l 463 715 q 647 160 601 285 q 842 714 744 421 l 981 714 q 858 317 921 483 q 710 0 794 151 l 585 0 q 503 161 533 90 q 421 0 479 106 l 296 0 m 307 871 q 513 1118 422 965 q 718 871 593 958 l 656 799 l 513 972 l 369 799 l 307 871 z "},"ẅ":{"ha":1024,"x_min":35,"x_max":981,"o":"m 296 0 q 158 299 217 136 q 35 715 99 463 l 174 715 q 358 160 313 285 l 428 353 q 324 715 376 503 l 463 715 q 647 160 601 285 q 842 714 744 421 l 981 714 q 858 317 921 483 q 710 0 794 151 l 585 0 q 503 161 533 90 q 421 0 479 106 l 296 0 m 339 924 l 478 924 l 478 799 l 339 799 l 339 924 m 547 924 l 686 924 l 686 799 l 547 799 l 547 924 z "},"ẁ":{"ha":1024,"x_min":35,"x_max":981,"o":"m 296 0 q 158 299 217 136 q 35 715 99 463 l 174 715 q 358 160 313 285 l 428 353 q 324 715 376 503 l 463 715 q 647 160 601 285 q 842 714 744 421 l 981 714 q 858 317 921 483 q 710 0 794 151 l 585 0 q 503 161 533 90 q 421 0 479 106 l 296 0 m 365 1060 l 504 1060 l 660 813 l 576 813 l 365 1060 z "},"x":{"ha":886,"x_min":49,"x_max":843,"o":"m 843 0 l 675 0 l 446 269 l 217 0 l 49 0 l 363 368 l 67 715 l 235 715 l 446 467 l 657 715 l 825 715 l 531 368 l 843 0 z "},"y":{"ha":756,"x_min":49,"x_max":713,"o":"m 306 93 l 49 715 l 200 715 l 394 242 l 576 715 l 713 715 l 319 -265 l 172 -265 l 306 93 z "},"ý":{"ha":756,"x_min":49,"x_max":713,"o":"m 306 93 l 49 715 l 200 715 l 394 242 l 576 715 l 713 715 l 319 -265 l 172 -265 l 306 93 m 442 1058 l 581 1058 l 369 811 l 286 811 l 442 1058 z "},"ŷ":{"ha":756,"x_min":49,"x_max":713,"o":"m 306 93 l 49 715 l 200 715 l 394 242 l 576 715 l 713 715 l 319 -265 l 172 -265 l 306 93 m 172 871 q 378 1118 288 965 q 583 871 458 958 l 521 799 l 378 972 l 235 799 l 172 871 z "},"ÿ":{"ha":756,"x_min":49,"x_max":713,"o":"m 306 93 l 49 715 l 200 715 l 394 242 l 576 715 l 713 715 l 319 -265 l 172 -265 l 306 93 m 204 924 l 343 924 l 343 799 l 204 799 l 204 924 m 413 924 l 551 924 l 551 799 l 413 799 l 413 924 z "},"ỳ":{"ha":756,"x_min":49,"x_max":713,"o":"m 306 93 l 49 715 l 200 715 l 394 242 l 576 715 l 713 715 l 319 -265 l 172 -265 l 306 93 m 161 1060 l 300 1060 l 456 813 l 372 813 l 161 1060 z "},"z":{"ha":647,"x_min":49,"x_max":604,"o":"m 376 590 l 115 590 l 115 715 l 604 715 l 285 139 l 544 139 l 544 0 l 49 0 l 376 590 z "},"ź":{"ha":647,"x_min":49,"x_max":604,"o":"m 376 590 l 115 590 l 115 715 l 604 715 l 285 139 l 544 139 l 544 0 l 49 0 l 376 590 m 388 1060 l 526 1060 l 315 813 l 232 813 l 388 1060 z "},"ž":{"ha":647,"x_min":49,"x_max":604,"o":"m 376 590 l 115 590 l 115 715 l 604 715 l 285 139 l 544 139 l 544 0 l 49 0 l 376 590 m 324 799 q 118 1046 233 951 l 181 1118 l 324 944 l 467 1118 l 529 1046 q 324 799 404 958 z "},"ż":{"ha":647,"x_min":49,"x_max":604,"o":"m 376 590 l 115 590 l 115 715 l 604 715 l 285 139 l 544 139 l 544 0 l 49 0 l 376 590 m 254 924 l 393 924 l 393 799 l 254 799 l 254 924 z "},".":{"ha":231,"x_min":49,"x_max":188,"o":"m 49 125 l 188 125 l 188 0 l 49 0 l 49 125 z "},",":{"ha":231,"x_min":49,"x_max":188,"o":"m 89 -167 q 125 -46 125 -97 q 117 0 125 -21 l 49 0 l 49 125 l 188 125 l 188 0 l 186 0 q 171 -76 186 -36 q 133 -141 156 -115 q 89 -167 111 -167 z "},":":{"ha":231,"x_min":49,"x_max":188,"o":"m 49 632 l 188 632 l 188 507 l 49 507 l 49 632 m 49 125 l 188 125 l 188 0 l 49 0 l 49 125 z "},";":{"ha":232,"x_min":49,"x_max":189,"o":"m 50 632 l 189 632 l 189 507 l 50 507 l 50 632 m 89 -167 q 125 -46 125 -97 q 117 0 125 -21 l 49 0 l 49 125 l 189 125 l 189 0 l 186 0 q 171 -76 186 -36 q 133 -141 156 -115 q 89 -167 111 -167 z "},"…":{"ha":647,"x_min":49,"x_max":604,"o":"m 257 125 l 396 125 l 396 0 l 257 0 l 257 125 m 465 125 l 604 125 l 604 0 l 465 0 l 465 125 m 49 125 l 188 125 l 188 0 l 49 0 l 49 125 z "},"!":{"ha":244,"x_min":63,"x_max":201,"o":"m 63 951 l 201 951 l 188 194 l 76 194 l 63 951 m 63 125 l 201 125 l 201 0 l 63 0 l 63 125 z "},"¡":{"ha":231,"x_min":49,"x_max":188,"o":"m 49 951 l 188 951 l 188 826 l 49 826 l 49 951 m 63 757 l 174 757 l 188 0 l 49 0 l 63 757 z "},"?":{"ha":560,"x_min":58,"x_max":517,"o":"m 222 440 q 238 478 222 460 l 368 632 q 378 657 378 642 l 378 792 q 372 807 378 801 q 357 813 367 813 l 218 813 q 203 807 208 813 q 197 792 197 801 l 197 667 q 192 651 197 657 q 176 646 186 646 l 79 646 q 64 651 69 646 q 58 667 58 657 l 58 931 q 64 946 58 940 q 79 951 69 951 l 496 951 q 511 946 506 951 q 517 931 517 940 l 517 657 q 507 632 517 642 l 376 478 q 361 435 364 464 l 347 194 l 236 194 l 222 435 l 222 440 m 225 125 l 364 125 l 364 0 l 225 0 l 225 125 z "},"¿":{"ha":560,"x_min":58,"x_max":517,"o":"m 211 951 l 350 951 l 350 826 l 211 826 l 211 951 m 79 0 q 64 6 69 0 q 58 21 58 11 l 58 294 q 68 319 58 310 l 199 474 q 214 517 211 488 l 228 757 l 339 757 l 353 517 l 353 511 q 338 474 353 492 l 207 319 q 197 294 197 310 l 197 160 q 203 144 197 150 q 218 139 208 139 l 357 139 q 372 144 367 139 q 378 160 378 150 l 378 285 q 383 300 378 294 q 399 306 389 306 l 496 306 q 511 300 506 306 q 517 285 517 294 l 517 21 q 511 6 517 11 q 496 0 506 0 l 79 0 z "},"·":{"ha":231,"x_min":49,"x_max":188,"o":"m 49 418 l 188 418 l 188 293 l 49 293 l 49 418 z "},"•":{"ha":300,"x_min":49,"x_max":257,"o":"m 49 481 l 257 481 l 257 293 l 49 293 l 49 481 z "},"*":{"ha":439,"x_min":49,"x_max":396,"o":"m 181 572 l 129 521 l 69 581 l 121 632 l 49 632 l 49 715 l 121 715 l 69 767 l 129 826 l 181 775 l 181 847 l 264 847 l 264 775 l 315 826 l 375 767 l 324 715 l 396 715 l 396 632 l 324 632 l 375 581 l 315 521 l 264 572 l 264 500 l 181 500 l 181 572 z "},"#":{"ha":910,"x_min":49,"x_max":867,"o":"m 197 150 l 49 150 l 83 289 l 232 289 l 265 428 l 117 428 l 151 567 l 300 567 l 336 715 l 475 715 l 439 567 l 578 567 l 614 715 l 753 715 l 717 567 l 867 567 l 832 428 l 682 428 l 649 289 l 799 289 l 764 150 l 614 150 l 578 0 l 439 0 l 475 150 l 336 150 l 300 0 l 161 0 l 197 150 m 510 289 l 543 428 l 404 428 l 371 289 l 510 289 z "},"/":{"ha":697,"x_min":49,"x_max":654,"o":"m 515 951 l 654 951 l 188 0 l 49 0 l 515 951 z "},"\\":{"ha":697,"x_min":49,"x_max":654,"o":"m 49 951 l 188 951 l 654 0 l 515 0 l 49 951 z "},"(":{"ha":488,"x_min":49,"x_max":444,"o":"m 361 -167 q 131 167 213 10 q 49 476 49 325 q 131 784 49 626 q 361 1118 213 942 l 444 1118 q 174 476 174 797 q 444 -167 174 154 l 361 -167 z "},")":{"ha":488,"x_min":49,"x_max":444,"o":"m 49 -167 q 319 476 319 154 q 49 1118 319 797 l 132 1118 q 363 784 281 942 q 444 476 444 626 q 363 167 444 325 q 132 -167 281 10 l 49 -167 z "},"[":{"ha":383,"x_min":49,"x_max":340,"o":"m 49 1118 l 340 1118 l 340 993 l 174 993 l 174 -42 l 340 -42 l 340 -167 l 49 -167 l 49 1118 z "},"]":{"ha":383,"x_min":49,"x_max":340,"o":"m 49 -42 l 215 -42 l 215 993 l 49 993 l 49 1118 l 340 1118 l 340 -167 l 49 -167 l 49 -42 z "},"-":{"ha":439,"x_min":49,"x_max":396,"o":"m 49 479 l 396 479 l 396 382 l 49 382 l 49 479 z "},"–":{"ha":564,"x_min":49,"x_max":521,"o":"m 49 479 l 521 479 l 521 382 l 49 382 l 49 479 z "},"—":{"ha":1036,"x_min":49,"x_max":993,"o":"m 49 479 l 993 479 l 993 382 l 49 382 l 49 479 z "},"_":{"ha":439,"x_min":49,"x_max":396,"o":"m 49 -83 l 396 -83 l 396 -167 l 49 -167 l 49 -83 z "},"‚":{"ha":231,"x_min":49,"x_max":188,"o":"m 89 -167 q 125 -46 125 -97 q 117 0 125 -21 l 49 0 l 49 125 l 188 125 l 188 0 l 186 0 q 171 -76 186 -36 q 133 -141 156 -115 q 89 -167 111 -167 z "},"„":{"ha":439,"x_min":49,"x_max":396,"o":"m 89 -167 q 125 -46 125 -97 q 117 0 125 -21 l 49 0 l 49 125 l 188 125 l 188 0 l 186 0 q 171 -76 186 -36 q 133 -141 156 -115 q 89 -167 111 -167 m 297 -167 q 333 -46 333 -97 q 325 0 333 -21 l 257 0 l 257 125 l 396 125 l 396 0 l 394 0 q 379 -76 394 -36 q 342 -141 364 -115 q 297 -167 319 -167 z "},"“":{"ha":439,"x_min":49,"x_max":396,"o":"m 50 910 q 65 985 50 946 q 103 1051 81 1025 q 147 1076 125 1076 q 111 956 111 1007 q 119 910 111 931 l 188 910 l 188 785 l 49 785 l 49 910 l 50 910 m 258 910 q 274 985 258 946 q 311 1051 289 1025 q 356 1076 333 1076 q 319 956 319 1007 q 328 910 319 931 l 396 910 l 396 785 l 257 785 l 257 910 l 258 910 z "},"”":{"ha":397,"x_min":7,"x_max":354,"o":"m 47 785 q 83 906 83 854 q 75 951 83 931 l 7 951 l 7 1076 l 146 1076 l 146 951 l 144 951 q 129 876 144 915 q 92 810 114 836 q 47 785 69 785 m 256 785 q 292 906 292 854 q 283 951 292 931 l 215 951 l 215 1076 l 354 1076 l 354 951 l 353 951 q 338 876 353 915 q 300 810 322 836 q 256 785 278 785 z "},"‘":{"ha":231,"x_min":49,"x_max":188,"o":"m 50 910 q 65 985 50 946 q 103 1051 81 1025 q 147 1076 125 1076 q 111 956 111 1007 q 119 910 111 931 l 188 910 l 188 785 l 49 785 l 49 910 l 50 910 z "},"’":{"ha":204,"x_min":49,"x_max":188,"o":"m 89 785 q 125 906 125 854 q 117 951 125 931 l 49 951 l 49 1076 l 188 1076 l 188 951 l 186 951 q 171 876 186 915 q 133 810 156 836 q 89 785 111 785 z "},"«":{"ha":717,"x_min":49,"x_max":674,"o":"m 257 289 l 601 578 l 674 515 l 403 289 l 674 63 l 601 0 l 257 289 m 49 289 l 393 578 l 465 515 l 194 289 l 465 63 l 393 0 l 49 289 z "},"»":{"ha":717,"x_min":49,"x_max":674,"o":"m 49 63 l 319 289 l 49 515 l 121 578 l 465 289 l 121 0 l 49 63 m 257 63 l 528 289 l 257 515 l 329 578 l 674 289 l 329 0 l 257 63 z "},"‹":{"ha":508,"x_min":49,"x_max":465,"o":"m 49 289 l 393 578 l 465 515 l 194 289 l 465 63 l 393 0 l 49 289 z "},"›":{"ha":508,"x_min":49,"x_max":465,"o":"m 49 63 l 319 289 l 49 515 l 121 578 l 465 289 l 121 0 l 49 63 z "},"\"":{"ha":439,"x_min":49,"x_max":396,"o":"m 49 1021 l 188 1021 l 146 785 l 90 785 l 49 1021 m 257 1021 l 396 1021 l 354 785 l 299 785 l 257 1021 z "},"'":{"ha":231,"x_min":49,"x_max":188,"o":"m 49 1021 l 188 1021 l 146 785 l 90 785 l 49 1021 z "},"¢":{"ha":771,"x_min":49,"x_max":728,"o":"m 479 118 q 613 214 565 136 l 708 108 q 479 -10 624 7 l 479 -125 l 368 -125 l 368 -10 q 206 55 279 3 q 91 188 133 107 q 49 360 49 268 q 135 611 49 513 q 368 726 222 710 l 368 799 l 479 799 l 479 725 q 621 671 556 713 q 728 568 686 629 l 613 490 q 553 556 588 528 q 479 596 519 583 l 479 118 m 188 354 q 239 202 188 268 q 368 117 290 136 l 368 599 q 236 517 285 583 q 188 354 188 451 z "},"$":{"ha":760,"x_min":63,"x_max":697,"o":"m 451 592 q 637 356 576 453 q 697 194 697 258 q 633 45 697 104 q 471 -14 569 -14 l 451 -14 l 451 -83 l 340 -83 l 340 -14 l 63 -14 l 63 125 l 340 125 l 340 463 l 319 486 q 149 693 199 625 q 100 790 100 761 q 121 876 100 836 q 176 941 142 917 q 249 965 210 965 l 340 965 l 340 1035 l 451 1035 l 451 965 l 665 965 l 665 826 l 451 826 l 451 592 m 267 811 q 340 708 267 783 l 340 826 l 294 826 q 267 811 267 826 m 468 125 q 510 148 490 125 q 531 194 531 171 q 451 331 531 231 l 451 125 l 468 125 z "},"€":{"ha":1121,"x_min":63,"x_max":1058,"o":"m 643 -14 q 324 84 453 -14 q 160 350 196 182 l 63 350 l 63 433 l 147 433 q 146 479 146 449 l 146 503 l 63 503 l 63 586 l 158 586 q 254 781 183 694 q 429 916 325 867 q 653 965 533 965 q 861 913 751 965 q 1026 786 971 860 l 915 703 q 793 794 867 761 q 638 826 719 826 q 439 763 521 826 q 328 586 357 699 l 410 586 l 410 503 l 314 503 q 313 461 313 489 q 314 433 313 443 l 410 433 l 410 350 l 331 350 q 450 188 364 250 q 646 125 536 125 q 826 172 739 125 q 972 299 914 218 l 1058 193 q 875 42 988 99 q 643 -14 763 -14 z "},"£":{"ha":681,"x_min":63,"x_max":618,"o":"m 463 -14 q 396 1 436 -14 q 313 43 356 17 q 260 72 285 61 q 224 83 235 83 q 180 60 208 83 q 124 0 151 36 l 63 101 l 185 196 q 226 304 226 228 q 214 390 226 349 q 188 432 201 432 l 64 432 l 64 528 l 150 528 l 143 574 l 118 738 q 147 853 118 801 q 226 935 175 906 q 338 965 276 965 q 497 906 425 965 q 608 746 569 847 q 535 696 568 710 q 528 692 532 694 q 519 686 524 689 q 449 811 486 776 q 363 846 413 846 q 317 835 333 846 q 294 792 301 824 q 286 701 286 761 q 294 587 286 619 q 336 541 303 554 q 454 528 369 528 l 454 432 l 347 432 q 349 406 347 418 q 350 385 350 394 q 333 288 350 344 q 296 206 315 231 q 431 154 382 181 q 493 131 478 131 q 543 167 507 131 q 579 218 579 203 l 618 104 q 599 64 618 94 q 534 8 572 29 q 463 -14 496 -14 z "},"¥":{"ha":864,"x_min":35,"x_max":801,"o":"m 333 197 l 243 197 l 243 281 l 333 281 l 333 350 l 243 350 l 243 433 l 333 433 l 333 507 l 35 951 l 203 951 l 417 628 l 628 951 l 801 951 l 500 507 l 500 433 l 590 433 l 590 350 l 500 350 l 500 281 l 590 281 l 590 197 l 500 197 l 500 0 l 333 0 l 333 197 z "},"+":{"ha":439,"x_min":49,"x_max":396,"o":"m 396 433 l 396 350 l 264 350 l 264 218 l 181 218 l 181 350 l 49 350 l 49 433 l 181 433 l 181 565 l 264 565 l 264 433 l 396 433 z "},"−":{"ha":439,"x_min":49,"x_max":396,"o":"m 49 433 l 396 433 l 396 350 l 49 350 l 49 433 z "},"×":{"ha":397,"x_min":49,"x_max":354,"o":"m 49 299 l 142 392 l 49 485 l 108 544 l 201 451 l 294 544 l 354 485 l 261 392 l 354 299 l 294 239 l 201 332 l 108 239 l 49 299 z "},"÷":{"ha":439,"x_min":49,"x_max":396,"o":"m 160 614 l 299 614 l 299 489 l 160 489 l 160 614 m 49 419 l 396 419 l 396 336 l 49 336 l 49 419 m 160 267 l 299 267 l 299 142 l 160 142 l 160 267 z "},"=":{"ha":439,"x_min":49,"x_max":396,"o":"m 49 503 l 396 503 l 396 419 l 49 419 l 49 503 m 49 350 l 396 350 l 396 267 l 49 267 l 49 350 z "},"~":{"ha":600,"x_min":49,"x_max":557,"o":"m 49 811 q 99 934 49 885 q 225 983 150 983 q 274 975 250 983 q 333 946 297 967 q 382 921 363 928 q 421 914 401 914 q 499 938 464 914 q 533 993 533 963 l 557 993 q 503 853 557 908 q 365 799 449 799 q 304 810 331 799 q 249 851 278 822 q 216 878 229 871 q 185 885 203 885 q 107 858 142 885 q 72 799 72 831 l 49 799 l 49 811 z "},"^":{"ha":503,"x_min":49,"x_max":460,"o":"m 49 482 q 254 729 164 576 q 460 482 335 569 l 397 410 l 254 583 l 111 410 l 49 482 z "},"%":{"ha":1200,"x_min":49,"x_max":1157,"o":"m 286 422 q 167 459 222 422 q 81 558 113 496 q 49 696 49 621 q 76 835 49 774 q 153 931 104 897 q 264 965 201 965 q 384 928 329 965 q 472 830 439 892 q 504 696 504 768 q 476 554 504 617 q 399 457 449 492 q 286 422 349 422 m 753 951 l 892 951 l 425 0 l 286 0 l 753 951 m 282 499 q 352 553 324 499 q 381 689 381 608 q 365 785 381 739 q 323 859 349 831 q 269 888 297 888 q 200 831 228 888 q 172 689 172 774 q 188 595 172 639 q 228 525 203 551 q 282 499 253 499 m 939 0 q 820 37 875 0 q 733 136 765 74 q 701 274 701 199 q 729 413 701 351 q 806 509 757 475 q 917 543 854 543 q 1037 506 982 543 q 1124 408 1092 469 q 1157 274 1157 346 q 1129 132 1157 194 q 1051 35 1101 69 q 939 0 1001 0 m 935 76 q 1005 131 976 76 q 1033 267 1033 186 q 1017 363 1033 317 q 976 437 1001 408 q 922 465 950 465 q 853 408 881 465 q 825 267 825 351 q 840 173 825 217 q 881 103 856 129 q 935 76 906 76 z "},"↑":{"ha":514,"x_min":49,"x_max":471,"o":"m 228 508 l 92 372 l 49 417 l 229 597 l 290 597 l 471 417 l 428 372 l 290 508 l 290 188 l 228 188 l 228 508 z "},"→":{"ha":521,"x_min":49,"x_max":458,"o":"m 233 224 l 369 361 l 49 361 l 49 424 l 369 424 l 233 560 l 278 603 l 458 422 l 458 361 l 278 181 l 233 224 z "},"↓":{"ha":514,"x_min":49,"x_max":471,"o":"m 49 368 l 92 413 l 228 276 l 228 597 l 290 597 l 290 276 l 428 413 l 471 368 l 290 188 l 229 188 l 49 368 z "},"←":{"ha":522,"x_min":78,"x_max":488,"o":"m 78 361 l 78 422 l 258 603 l 303 560 l 167 422 l 488 422 l 488 360 l 167 360 l 303 224 l 258 181 l 78 361 z "},"↔":{"ha":747,"x_min":78,"x_max":713,"o":"m 78 361 l 78 422 l 258 603 l 303 560 l 167 422 l 624 422 l 488 560 l 532 603 l 713 422 l 713 361 l 532 181 l 488 224 l 624 360 l 167 360 l 303 224 l 258 181 l 78 361 z "},"↕":{"ha":514,"x_min":49,"x_max":471,"o":"m 229 33 l 49 213 l 92 257 l 228 122 l 228 578 l 92 442 l 49 486 l 229 668 l 290 667 l 471 488 l 428 443 l 290 579 l 290 122 l 428 258 l 471 214 l 290 32 l 229 33 z "},"@":{"ha":578,"x_min":49,"x_max":535,"o":"m 292 0 q 169 33 225 0 q 81 122 114 65 q 49 243 49 178 q 81 365 49 308 q 169 453 114 421 q 292 486 225 486 q 413 453 357 486 q 502 365 469 421 q 535 243 535 308 q 502 122 535 178 q 413 33 469 65 q 292 0 357 0 m 429 100 q 408 286 429 224 q 334 374 386 349 q 179 399 282 399 l 179 349 l 214 349 q 273 343 250 349 q 313 324 296 338 q 211 236 243 274 q 179 168 179 199 q 203 119 179 139 q 264 100 228 100 l 429 100 m 275 151 q 242 156 251 151 q 232 172 232 161 q 268 229 232 194 q 347 286 304 264 q 369 151 369 235 l 275 151 z "},"&":{"ha":869,"x_min":63,"x_max":807,"o":"m 461 -14 q 169 81 275 -14 q 63 339 63 175 q 103 488 63 414 q 203 597 143 563 q 229 622 229 613 q 213 647 229 631 q 144 749 172 688 q 115 857 115 811 q 149 928 115 904 q 246 953 182 953 l 607 953 l 607 835 l 329 835 q 276 801 276 835 q 319 723 276 769 q 426 639 363 676 l 426 551 q 260 494 318 551 q 201 332 201 438 q 270 165 201 219 q 482 111 339 111 q 616 152 564 111 q 668 257 668 193 q 625 357 668 314 l 556 281 l 451 374 l 685 626 l 788 533 l 718 461 q 784 369 761 418 q 807 274 807 319 q 716 62 807 138 q 461 -14 625 -14 z "},"¶":{"ha":925,"x_min":49,"x_max":882,"o":"m 521 161 q 291 313 390 239 q 120 485 192 388 q 49 692 49 582 q 117 883 49 814 q 315 951 185 951 l 660 951 l 660 0 l 521 0 l 521 161 m 743 951 l 882 951 l 882 0 l 743 0 l 743 951 z "},"©":{"ha":613,"x_min":49,"x_max":569,"o":"m 310 446 q 179 481 239 446 q 84 575 119 515 q 49 706 49 635 q 84 836 49 776 q 179 931 119 896 q 310 965 239 965 q 439 931 379 965 q 534 836 499 896 q 569 706 569 776 q 534 575 569 635 q 439 481 499 515 q 310 446 379 446 m 317 504 q 407 521 367 504 q 472 569 447 538 l 421 628 q 315 571 385 571 q 225 610 263 571 q 188 703 188 649 q 223 803 188 765 q 315 840 258 840 q 375 824 347 840 q 421 778 403 807 l 482 821 q 410 885 454 861 q 317 908 367 908 q 168 853 224 908 q 113 707 113 799 q 140 605 113 651 q 215 531 168 558 q 317 504 261 504 z "},"®":{"ha":583,"x_min":49,"x_max":540,"o":"m 294 481 q 172 514 228 481 q 82 603 115 547 q 49 726 49 660 q 82 849 49 793 q 172 939 115 906 q 294 972 228 972 q 417 939 361 972 q 507 849 474 906 q 540 726 540 793 q 507 603 540 660 q 417 514 474 547 q 294 481 361 481 m 238 653 l 299 676 l 376 557 l 438 557 l 347 700 q 439 818 439 749 q 404 887 439 860 q 315 914 369 914 l 175 914 l 175 557 l 238 557 l 238 653 m 311 864 q 358 848 338 864 q 378 810 378 832 q 238 701 378 757 l 238 864 l 311 864 z "},"™":{"ha":561,"x_min":49,"x_max":518,"o":"m 94 896 l 49 896 l 49 965 l 215 965 l 215 896 l 168 896 l 168 715 l 94 715 l 94 896 m 335 965 q 394 906 367 943 q 446 965 415 938 l 518 965 l 518 715 l 442 715 l 442 856 q 419 810 426 829 l 363 810 q 342 856 356 838 l 342 715 l 267 715 l 267 965 l 335 965 z "},"̈":{"ha":0,"x_min":-410,"x_max":-62,"o":"m -410 924 l -271 924 l -271 799 l -410 799 l -410 924 m -201 924 l -62 924 l -62 799 l -201 799 l -201 924 z "},"̇":{"ha":0,"x_min":-182,"x_max":-43,"o":"m -182 924 l -43 924 l -43 799 l -182 799 l -182 924 z "},"̀":{"ha":0,"x_min":-337,"x_max":-43,"o":"m -337 1060 l -199 1060 l -43 813 l -126 813 l -337 1060 z "},"́":{"ha":0,"x_min":-337,"x_max":-43,"o":"m -182 1060 l -43 1060 l -254 813 l -337 813 l -182 1060 z "},"̋":{"ha":0,"x_min":-518,"x_max":-43,"o":"m -362 1060 l -224 1060 l -435 813 l -518 813 l -362 1060 m -182 1060 l -43 1060 l -254 813 l -337 813 l -182 1060 z "},"̂":{"ha":0,"x_min":-454,"x_max":-43,"o":"m -454 871 q -249 1118 -339 965 q -43 871 -168 958 l -106 799 l -249 972 l -392 799 l -454 871 z "},"̌":{"ha":0,"x_min":-454,"x_max":-43,"o":"m -249 799 q -454 1046 -339 951 l -392 1118 l -249 944 l -106 1118 l -43 1046 q -249 799 -168 958 z "},"̆":{"ha":0,"x_min":-390,"x_max":-43,"o":"m -217 813 q -301 836 -261 813 q -366 901 -342 860 q -390 992 -390 942 q -311 934 -357 958 q -222 910 -265 910 q -128 935 -183 910 q -43 992 -74 961 q -67 901 -43 942 q -132 836 -92 860 q -217 813 -172 813 z "},"̊":{"ha":0,"x_min":-293,"x_max":-43,"o":"m -168 799 q -256 833 -219 799 q -293 917 -293 868 q -256 1000 -293 965 q -168 1035 -219 1035 q -80 1000 -117 1035 q -43 917 -43 965 q -80 833 -43 868 q -168 799 -117 799 m -168 861 q -123 876 -140 861 q -106 914 -106 892 q -124 955 -106 938 q -168 972 -143 972 q -212 955 -193 972 q -231 914 -231 938 q -213 876 -231 892 q -168 861 -196 861 z "},"̃":{"ha":0,"x_min":-551,"x_max":-43,"o":"m -551 811 q -501 934 -551 885 q -375 983 -450 983 q -326 975 -350 983 q -267 946 -303 967 q -218 921 -237 928 q -179 914 -199 914 q -101 938 -136 914 q -67 993 -67 963 l -43 993 q -97 853 -43 908 q -235 799 -151 799 q -296 810 -269 799 q -351 851 -322 822 q -384 878 -371 871 q -415 885 -397 885 q -493 858 -458 885 q -528 799 -528 831 l -551 799 l -551 811 z "},"̄":{"ha":0,"x_min":-390,"x_max":-43,"o":"m -390 896 l -43 896 l -43 813 l -390 813 l -390 896 z "},"̒":{"ha":0,"x_min":-182,"x_max":-43,"o":"m -181 924 q -165 999 -181 960 q -128 1065 -150 1039 q -83 1090 -106 1090 q -119 969 -119 1021 q -111 924 -119 944 l -43 924 l -43 799 l -182 799 l -182 924 l -181 924 z "},"̦":{"ha":0,"x_min":-182,"x_max":-43,"o":"m -142 -389 q -106 -268 -106 -319 q -114 -222 -106 -243 l -182 -222 l -182 -97 l -43 -97 l -43 -222 l -44 -222 q -60 -298 -44 -258 q -97 -363 -75 -337 q -142 -389 -119 -389 z "},"̧":{"ha":0,"x_min":-251,"x_max":-43,"o":"m -153 -246 q -251 -176 -251 -246 l -201 -176 q -153 -199 -176 -199 q -139 -187 -144 -199 q -133 -162 -133 -176 q -139 -128 -133 -146 q -153 -110 -144 -110 q -183 -115 -164 -110 q -219 -135 -201 -119 l -251 -119 l -187 4 l -133 4 l -171 -62 l -153 -62 q -72 -81 -100 -62 q -43 -135 -43 -100 q -74 -216 -43 -186 q -153 -246 -106 -246 z "},"̨":{"ha":0,"x_min":-262,"x_max":-43,"o":"m -196 -226 q -243 -203 -224 -226 q -262 -149 -262 -181 q -230 -51 -262 -97 q -135 4 -197 -6 l -85 4 q -135 -49 -119 -14 q -151 -117 -151 -85 q -134 -160 -151 -146 q -78 -174 -117 -174 q -51 -168 -60 -174 l -43 -179 q -115 -214 -74 -201 q -196 -226 -156 -226 z "},"¨":{"ha":439,"x_min":49,"x_max":396,"o":"m 49 924 l 188 924 l 188 799 l 49 799 l 49 924 m 257 924 l 396 924 l 396 799 l 257 799 l 257 924 z "},"˙":{"ha":231,"x_min":49,"x_max":188,"o":"m 49 924 l 188 924 l 188 799 l 49 799 l 49 924 z "},"`":{"ha":386,"x_min":49,"x_max":343,"o":"m 49 1060 l 188 1060 l 343 813 l 260 813 l 49 1060 z "},"´":{"ha":386,"x_min":49,"x_max":343,"o":"m 204 1060 l 343 1060 l 132 813 l 49 813 l 204 1060 z "},"˝":{"ha":567,"x_min":49,"x_max":524,"o":"m 204 1060 l 343 1060 l 132 813 l 49 813 l 204 1060 m 385 1060 l 524 1060 l 313 813 l 229 813 l 385 1060 z "},"ˆ":{"ha":503,"x_min":49,"x_max":460,"o":"m 49 871 q 254 1118 164 965 q 460 871 335 958 l 397 799 l 254 972 l 111 799 l 49 871 z "},"ˇ":{"ha":503,"x_min":49,"x_max":460,"o":"m 254 799 q 49 1046 164 951 l 111 1118 l 254 944 l 397 1118 l 460 1046 q 254 799 335 958 z "},"˘":{"ha":439,"x_min":49,"x_max":396,"o":"m 222 813 q 138 836 178 813 q 73 901 97 860 q 49 992 49 942 q 128 934 82 958 q 217 910 174 910 q 310 935 256 910 q 396 992 365 961 q 372 901 396 942 q 307 836 347 860 q 222 813 267 813 z "},"˚":{"ha":342,"x_min":49,"x_max":299,"o":"m 174 799 q 85 833 122 799 q 49 917 49 868 q 85 1000 49 965 q 174 1035 122 1035 q 262 1000 225 1035 q 299 917 299 965 q 262 833 299 868 q 174 799 225 799 m 174 861 q 219 876 201 861 q 236 914 236 892 q 217 955 236 938 q 174 972 199 972 q 130 955 149 972 q 111 914 111 938 q 128 876 111 892 q 174 861 146 861 z "},"˜":{"ha":600,"x_min":49,"x_max":557,"o":"m 49 811 q 99 934 49 885 q 225 983 150 983 q 274 975 250 983 q 333 946 297 967 q 382 921 363 928 q 421 914 401 914 q 499 938 464 914 q 533 993 533 963 l 557 993 q 503 853 557 908 q 365 799 449 799 q 304 810 331 799 q 249 851 278 822 q 216 878 229 871 q 185 885 203 885 q 107 858 142 885 q 72 799 72 831 l 49 799 l 49 811 z "},"¯":{"ha":439,"x_min":49,"x_max":396,"o":"m 49 896 l 396 896 l 396 813 l 49 813 l 49 896 z "},"¸":{"ha":300,"x_min":49,"x_max":257,"o":"m 147 -246 q 49 -176 49 -246 l 99 -176 q 147 -199 124 -199 q 161 -187 156 -199 q 167 -162 167 -176 q 161 -128 167 -146 q 147 -110 156 -110 q 117 -115 136 -110 q 81 -135 99 -119 l 49 -119 l 113 4 l 167 4 l 129 -62 l 147 -62 q 228 -81 200 -62 q 257 -135 257 -100 q 226 -216 257 -186 q 147 -246 194 -246 z "},"˛":{"ha":311,"x_min":49,"x_max":268,"o":"m 115 -226 q 68 -203 88 -226 q 49 -149 49 -181 q 81 -51 49 -97 q 176 4 114 -6 l 226 4 q 176 -49 192 -14 q 160 -117 160 -85 q 177 -160 160 -146 q 233 -174 194 -174 q 260 -168 251 -174 l 268 -179 q 197 -214 238 -201 q 115 -226 156 -226 z "}}}
